#N canvas 721 215 922 704 12;
#X obj 65 79 beats-per-minute 60;
#X floatatom 91 109 5 0 0 0 - - - 0;
#X obj 42 33 bng 15 250 50 0 empty empty empty 17 7 0 10 #fcfcfc #000000
#000000;
#X obj 35 136 metro;
#X obj 20 25 tgl 15 0 empty empty empty 17 7 0 10 #fcfcfc #000000 #000000
0 1;
#X floatatom 62 34 5 0 0 0 - - - 0;
#X obj 95 255 makenote 64;
#X obj 95 279 noteout 1;
#X obj 77 162 bng 15 250 50 0 empty empty empty 17 7 0 10 #fcfcfc #000000
#000000;
#X floatatom 194 140 5 0 0 0 - - - 0;
#X text 191 119 velocity;
#X obj 203 278 noteout 1;
#X obj 203 254 makenote 68;
#X floatatom 248 139 5 0 0 0 - - - 0;
#X msg 373 125 60;
#X msg 420 126 120;
#X floatatom 37 200 5 0 0 0 - - - 0;
#X floatatom 88 199 5 0 0 0 - - - 0;
#X obj 304 278 noteout 1;
#X obj 304 254 makenote 68;
#X floatatom 296 139 5 0 0 0 - - - 0;
#X floatatom 145 199 5 0 0 0 - - - 0;
#N canvas 0 22 450 278 (subpatch) 0;
#X array four 4 float 3;
#A 0 51.8333 52 52.3333 52.5;
#X coords 0 70 4 50 200 120 1 0 0;
#X restore 77 463 graph;
#X obj 331 529 tabread four;
#X floatatom 331 553 5 0 0 0 - - - 0;
#X msg 303 487 1;
#X msg 340 486 2;
#X msg 380 487 3;
#X msg 417 486 4;
#X obj 731 347 metro;
#X obj 724 303 tgl 15 0 empty empty empty 17 7 0 10 #fcfcfc #000000
#000000 0 1;
#X obj 698 379 bng 15 250 50 0 empty empty empty 17 7 0 10 #fcfcfc
#000000 #000000;
#X floatatom 763 293 5 0 0 0 - - - 0;
#X obj 763 319 beats-per-minute 60;
#X obj 735 195 line;
#X floatatom 735 219 5 0 0 0 - - - 0;
#X msg 736 162 0 \, 4 4000 1000;
#X obj 771 422 tgl 15 0 empty empty empty 17 7 0 10 #fcfcfc #000000
#000000 0 1;
#X msg 771 442 \$1 1000;
#X obj 771 466 line;
#X floatatom 771 490 5 0 0 0 - - - 0;
#X obj 234 5 pack f f;
#X obj 234 28 line;
#X floatatom 234 74 5 0 0 0 - - - 0;
#X floatatom 287 -18 5 0 0 0 - - - 0;
#X obj 234 -18 tgl 15 0 empty empty empty 17 7 0 10 #fcfcfc #000000
#000000 0 1;
#X text 284 -37 time value ms;
#X text 216 -37 values;
#X obj 234 51 * 127;
#X obj 417 6 pack f f;
#X obj 417 29 line;
#X floatatom 417 75 5 0 0 0 - - - 0;
#X floatatom 470 -17 5 0 0 0 - - - 0;
#X obj 417 -17 tgl 15 0 empty empty empty 17 7 0 10 #fcfcfc #000000
#000000 0 1;
#X text 467 -36 time value ms;
#X text 399 -36 values;
#X obj 417 52 * 127;
#X obj 558 39 pack f f;
#X obj 558 62 line;
#X floatatom 558 108 5 0 0 0 - - - 0;
#X floatatom 611 16 5 0 0 0 - - - 0;
#X obj 558 16 tgl 15 0 empty empty empty 17 7 0 10 #fcfcfc #000000
#000000 0 1;
#X text 608 -3 time value ms;
#X text 540 -3 values;
#X obj 558 85 * 127;
#X obj 636 442 pack f f;
#X obj 636 465 line;
#X floatatom 636 511 5 0 0 0 - - - 0;
#X floatatom 656 422 5 0 0 0 - - - 0;
#X obj 636 423 tgl 15 0 empty empty empty 17 7 0 10 #fcfcfc #000000
#000000 0 1;
#X obj 636 488 * 127;
#X connect 0 0 1 0;
#X connect 0 0 6 2;
#X connect 0 0 3 1;
#X connect 0 0 12 2;
#X connect 0 0 19 2;
#X connect 2 0 0 0;
#X connect 3 0 8 0;
#X connect 3 0 16 0;
#X connect 3 0 17 0;
#X connect 3 0 21 0;
#X connect 4 0 2 0;
#X connect 4 0 3 0;
#X connect 5 0 0 0;
#X connect 6 0 7 0;
#X connect 6 1 7 1;
#X connect 9 0 6 1;
#X connect 12 0 11 0;
#X connect 12 1 11 1;
#X connect 13 0 12 1;
#X connect 14 0 16 0;
#X connect 15 0 17 0;
#X connect 16 0 6 0;
#X connect 17 0 12 0;
#X connect 19 0 18 0;
#X connect 19 1 18 1;
#X connect 20 0 19 1;
#X connect 21 0 19 0;
#X connect 23 0 24 0;
#X connect 25 0 23 0;
#X connect 26 0 23 0;
#X connect 27 0 23 0;
#X connect 28 0 23 0;
#X connect 29 0 31 0;
#X connect 30 0 29 0;
#X connect 31 0 37 0;
#X connect 31 0 45 0;
#X connect 31 0 53 0;
#X connect 31 0 61 0;
#X connect 31 0 69 0;
#X connect 32 0 33 0;
#X connect 33 0 29 1;
#X connect 34 0 35 0;
#X connect 36 0 34 0;
#X connect 37 0 38 0;
#X connect 38 0 39 0;
#X connect 39 0 40 0;
#X connect 41 0 42 0;
#X connect 42 0 48 0;
#X connect 43 0 9 0;
#X connect 44 0 41 1;
#X connect 45 0 41 0;
#X connect 48 0 43 0;
#X connect 49 0 50 0;
#X connect 50 0 56 0;
#X connect 51 0 13 0;
#X connect 52 0 49 1;
#X connect 53 0 49 0;
#X connect 56 0 51 0;
#X connect 57 0 58 0;
#X connect 58 0 64 0;
#X connect 59 0 20 0;
#X connect 60 0 57 1;
#X connect 61 0 57 0;
#X connect 64 0 59 0;
#X connect 65 0 66 0;
#X connect 66 0 70 0;
#X connect 68 0 65 1;
#X connect 69 0 65 0;
#X connect 70 0 67 0;
