#N canvas 655 132 707 869 12;
#X symbolatom 0 0 29 0 0 0 - - - 0;
#X obj 166 229 +;
#X floatatom 131 155 5 0 0 0 root - - 0;
#X floatatom 157 207 5 0 0 0 2nd - - 0;
#X floatatom 166 252 5 0 0 0 3rd - - 0;
#X obj 192 274 +;
#X floatatom 192 298 5 0 0 0 4th - - 0;
#X obj 219 320 +;
#X floatatom 219 344 5 0 0 0 5th - - 0;
#X obj 245 366 +;
#X floatatom 245 390 5 0 0 0 6th - - 0;
#X obj 272 412 +;
#X floatatom 272 436 5 0 0 0 7th - - 0;
#X obj 299 458 +;
#X floatatom 299 482 5 0 0 0 octave - - 0;
#X obj 111 33 inlet;
#X obj 328 549 +;
#X floatatom 319 527 5 0 0 0 2nd - - 0;
#X floatatom 328 572 5 0 0 0 3rd - - 0;
#X obj 354 594 +;
#X floatatom 354 618 5 0 0 0 4th - - 0;
#X obj 381 640 +;
#X floatatom 381 664 5 0 0 0 5th - - 0;
#X obj 407 686 +;
#X floatatom 407 710 5 0 0 0 6th - - 0;
#X obj 434 732 +;
#X floatatom 434 756 5 0 0 0 7th - - 0;
#X obj 459 787 +;
#X floatatom 459 811 5 0 0 0 octave - - 0;
#X obj 319 504 +;
#X obj 50 460 outlet;
#X obj 60 480 outlet;
#X obj 70 500 outlet;
#X obj 80 520 outlet;
#X obj 90 540 outlet;
#X obj 100 560 outlet;
#X obj 110 580 outlet;
#X obj 120 600 outlet;
#X obj 130 620 outlet;
#X obj 140 640 outlet;
#X obj 150 660 outlet;
#X obj 160 680 outlet;
#X obj 170 700 outlet;
#X obj 180 720 outlet;
#X obj 190 740 outlet;
#X text 154 33 scale;
#X text 463 137 octave;
#X obj 140 180 +;
#X obj 422 162 * 12;
#X msg 460 162 0;
#X obj 492 162 loadbang;
#X obj 171 127 unpack symbol i i i i i i i;
#X floatatom 422 187 5 0 0 0 - - - 0;
#X msg 226 39 major 2 2 1 2 2 2 1;
#X msg 237 64 natural-minor 2 1 2 2 1 2 2;
#X msg 247 90 mixolydian 2 2 1 2 2 1 2;
#X connect 1 0 4 0;
#X connect 2 0 30 0;
#X connect 2 0 47 0;
#X connect 3 0 1 0;
#X connect 3 0 31 0;
#X connect 4 0 5 0;
#X connect 4 0 32 0;
#X connect 5 0 6 0;
#X connect 6 0 7 0;
#X connect 6 0 33 0;
#X connect 7 0 8 0;
#X connect 8 0 9 0;
#X connect 8 0 34 0;
#X connect 9 0 10 0;
#X connect 10 0 11 0;
#X connect 10 0 35 0;
#X connect 11 0 12 0;
#X connect 12 0 13 0;
#X connect 12 0 36 0;
#X connect 13 0 14 0;
#X connect 14 0 29 0;
#X connect 14 0 37 0;
#X connect 15 0 51 0;
#X connect 16 0 18 0;
#X connect 17 0 16 0;
#X connect 17 0 38 0;
#X connect 18 0 19 0;
#X connect 18 0 39 0;
#X connect 19 0 20 0;
#X connect 20 0 21 0;
#X connect 20 0 40 0;
#X connect 21 0 22 0;
#X connect 22 0 23 0;
#X connect 22 0 41 0;
#X connect 23 0 24 0;
#X connect 24 0 25 0;
#X connect 24 0 42 0;
#X connect 25 0 26 0;
#X connect 26 0 27 0;
#X connect 26 0 43 0;
#X connect 27 0 28 0;
#X connect 28 0 44 0;
#X connect 29 0 17 0;
#X connect 48 0 52 0;
#X connect 49 0 48 1;
#X connect 50 0 49 0;
#X connect 51 0 0 0;
#X connect 51 1 29 1;
#X connect 51 1 3 0;
#X connect 51 2 1 1;
#X connect 51 2 16 1;
#X connect 51 3 5 1;
#X connect 51 3 19 1;
#X connect 51 4 7 1;
#X connect 51 4 21 1;
#X connect 51 5 9 1;
#X connect 51 5 23 1;
#X connect 51 6 11 1;
#X connect 51 6 25 1;
#X connect 51 7 13 1;
#X connect 51 7 27 1;
#X connect 53 0 51 0;
#X connect 54 0 51 0;
#X connect 55 0 51 0;
#X coords 0 -1 1 1 268 25 2 0 0;
