#N canvas 513 38 1208 999 12;
#X obj 449 528 notename, f 4;
#X symbolatom 450 561 4 0 0 0 - - - 0;
#X obj 84 650 mtof;
#X obj 84 674 osc~;
#X obj 23 940 dac~;
#X obj 15 287 i;
#X floatatom 15 308 5 0 0 0 - - - 0;
#X obj 25 20 tgl 25 0 empty empty empty 17 7 0 10 #c6ffc7 #000000 #000000
0 1;
#X obj 43 287 + 1;
#X obj 63 326 % 8;
#X obj 63 347 + 1;
#X obj 63 368 select 1 2 3 4 5 6 7 8, f 34;
#X msg 37 65 0;
#X floatatom 24 347 5 0 0 0 - - - 0;
#X obj 63 398 bng 15 250 50 0 empty empty empty 17 7 0 10 #fcfcfc #000000
#000000;
#X obj 93 398 bng 15 250 50 0 empty empty empty 17 7 0 10 #fcfcfc #000000
#000000;
#X obj 123 398 bng 15 250 50 0 empty empty empty 17 7 0 10 #fcfcfc
#000000 #000000;
#X obj 153 398 bng 15 250 50 0 empty empty empty 17 7 0 10 #fcfcfc
#000000 #000000;
#X obj 183 398 bng 15 250 50 0 empty empty empty 17 7 0 10 #fcfcfc
#000000 #000000;
#X obj 213 398 bng 15 250 50 0 empty empty empty 17 7 0 10 #fcfcfc
#000000 #000000;
#X obj 243 398 bng 15 250 50 0 empty empty empty 17 7 0 10 #fcfcfc
#000000 #000000;
#X obj 273 398 bng 15 250 50 0 empty empty empty 17 7 0 10 #fcfcfc
#000000 #000000;
#X floatatom 144 649 5 0 0 0 - - - 0;
#X obj 130 727 vline~;
#X msg 136 675 0.5 200 0 \, 0.2 200 200 \, 0 500 1100;
#X obj 84 698 *~;
#X obj 35 398 bng 15 250 50 0 empty empty empty 17 7 0 10 #fcfcfc #000000
#000000;
#X msg 1014 64 67;
#X msg 1014 84 74;
#X msg 1014 104 81;
#X msg 1014 124 88;
#X text 1042 62 g;
#X text 1042 83 d;
#X text 1042 102 a;
#X text 1042 123 e;
#X obj 818 184 s num;
#X floatatom 998 145 5 0 0 0 - - - 0;
#X text 1042 42 g;
#X msg 1014 44 55;
#X obj 15 266 metro 100;
#X floatatom 56 23 5 0 0 0 - - - 0;
#X msg 94 19 100;
#X text 424 -1 1st \, 2nd \, 4th \, 5th;
#X text 424 12 1 \, +2 \, +5 \, +7;
#X msg 959 54 60;
#X text 984 52 c;
#X text 570 -4 chord progression;
#X text 107 327 arp;
#X obj 427 63 bng 15 250 50 0 empty empty empty 17 7 0 10 #fcfcfc #000000
#000000;
#X obj 457 63 bng 15 250 50 0 empty empty empty 17 7 0 10 #fcfcfc #000000
#000000;
#X obj 487 63 bng 15 250 50 0 empty empty empty 17 7 0 10 #fcfcfc #000000
#000000;
#X obj 517 63 bng 15 250 50 0 empty empty empty 17 7 0 10 #fcfcfc #000000
#000000;
#X obj 393 55 + 1;
#X floatatom 354 55 5 0 0 0 - - - 0;
#X obj 393 34 % 4;
#X obj 427 33 select 1 2 3 4, f 17;
#X floatatom 796 132 5 0 0 0 - - - 0;
#X msg 796 88 \$1;
#X floatatom 836 132 5 0 0 0 - - - 0;
#X msg 836 88 \$1;
#X obj 876 109 + 7;
#X floatatom 876 132 5 0 0 0 - - - 0;
#X msg 876 88 \$1;
#X floatatom 756 132 5 0 0 0 - - - 0;
#X msg 756 88 \$1;
#X obj 796 109 + 2;
#X obj 836 109 + 5;
#X obj 861 370 s chordroot;
#X text 889 346 g;
#X msg 861 348 55;
#X obj 783 46 r chordroot;
#X obj 241 92 i;
#X floatatom 241 113 5 0 0 0 - - - 0;
#X obj 269 92 + 1;
#X obj 241 71 metro 100;
#X obj 298 42 * 32;
#X obj 861 320 s chordroot;
#X text 889 296 g;
#X msg 861 298 43;
#X obj 861 270 s chordroot;
#X msg 861 248 60;
#X text 889 246 c;
#X msg 143 700 0.5 20 0 \, 0.2 10 100 \, 0 100 100;
#X text 447 580 1st 2nd 3rd 4th 5th 6th 7th 1st+ 2nd+ 3rd+ 4th+ 5th+
6th+ 7th+, f 64;
#X text 477 597 +2 \, +4 +5 \, +7 +9 +11 +12 +14 +16 +17 +19 +21 +23
;
#X text 445 619 major 2-2-1-2-2-2-1;
#X text 445 639 natural minor 2-1-2-2-1-2-2;
#X text 445 659 major pentatonic 2-2-3-2-3;
#X text 445 679 minor pentatonic 3-2-2-3-2;
#X text 445 699 blues 3-2-1-1-3-2;
#X text 445 719 lydian 2-2-2-1-2-2-1;
#X text 445 739 mixolydian 2-2-1-2-2-1-2;
#X text 445 759 harmonic major 2-2-1-2-1-3-1;
#X text 445 779 lydian dominant 2-2-2-1-2-1-2;
#X text 445 799 phrygian dominant 1-3-1-2-1-2-2;
#X text 445 819 bebop dorian 2-1-1-1-2-2-1-2;
#X msg 410 184 major 2 2 1 2 2 2 1;
#X obj 440 324 scale;
#X msg 421 209 natural-minor 2 1 2 2 1 2 2;
#X msg 431 235 mixolydian 2 2 1 2 2 1 2;
#X floatatom 442 369 5 0 0 2 root - - 0;
#X floatatom 484 369 5 0 0 2 3rd - - 0;
#X floatatom 525 369 5 0 0 2 5th - - 0;
#X floatatom 568 369 5 0 0 2 oct1 - - 0;
#X floatatom 612 369 5 0 0 2 oct2 - - 0;
#X obj 392 368 r num;
#X obj 442 397 +;
#X floatatom 449 510 5 0 0 0 - - - 0;
#X obj 485 397 +;
#X floatatom 492 510 5 0 0 0 - - - 0;
#X obj 525 397 +;
#X floatatom 532 510 5 0 0 0 - - - 0;
#X obj 568 397 +;
#X floatatom 575 510 5 0 0 0 - - - 0;
#X obj 613 397 +;
#X floatatom 620 510 5 0 0 0 - - - 0;
#X text 132 598 envelop;
#X obj 492 528 notename, f 4;
#X symbolatom 493 561 4 0 0 0 - - - 0;
#X obj 532 528 notename, f 4;
#X symbolatom 533 561 4 0 0 0 - - - 0;
#X obj 575 528 notename, f 4;
#X symbolatom 576 561 4 0 0 0 - - - 0;
#X obj 620 528 notename, f 4;
#X symbolatom 621 561 4 0 0 0 - - - 0;
#X floatatom 61 907 5 0 0.7 0 - - - 0;
#X obj 33 907 *~;
#X msg 441 263 bebop-dorian 2 1 1 1 2 2 1 2;
#X msg 451 290 phrygian-dominant 1 3 1 2 1 2 2;
#X floatatom 498 92 5 0 0 0 - - - 0;
#X obj 499 112 +;
#X obj 389 107 r chordroot;
#X floatatom 499 133 5 0 0 0 - - - 0;
#X floatatom 540 91 5 0 0 0 - - - 0;
#X obj 541 111 +;
#X floatatom 541 132 5 0 0 0 - - - 0;
#X floatatom 580 91 5 0 0 0 - - - 0;
#X obj 581 111 +;
#X floatatom 581 132 5 0 0 0 - - - 0;
#X floatatom 621 92 5 0 0 0 - - - 0;
#X obj 622 112 +;
#X floatatom 622 133 5 0 0 0 - - - 0;
#X obj 613 161 s num;
#X obj 15 778 phasor~;
#X obj 63 809 vline~;
#X obj 23 810 *~;
#X obj 29 851 bob~;
#X floatatom 76 834 5 0 0 1 - - - 0;
#X floatatom 96 859 5 0 8 1 reso - - 0;
#X obj 862 425 s chordroot;
#X msg 862 403 30;
#X obj 100 880 hsl 128 15 0.08 8 1 0 empty empty empty -2 -8 0 10 #feffc6
#000000 #000000 0 1;
#X obj 121 836 hsl 128 15 50 4400 1 0 empty empty cutoff -2 -8 0 10
#ffe3c6 #000000 #000000 0 1;
#X obj 862 474 s chordroot;
#X msg 862 452 24;
#X obj 105 915 hsl 128 15 0.01 1 1 0 empty empty vol -2 -8 0 10 #c6feff
#000000 #000000 0 1;
#X obj 102 935 - 0.01;
#X obj 388 292 notename, f 4;
#X symbolatom 389 325 4 0 0 0 - - - 0;
#X msg 75 777 0.5 20 0 \, 0.2 10 100 \, 0 50 400;
#X connect 0 0 1 0;
#X connect 2 0 3 0;
#X connect 2 0 22 0;
#X connect 2 0 143 0;
#X connect 3 0 25 0;
#X connect 5 0 6 0;
#X connect 5 0 8 0;
#X connect 6 0 9 0;
#X connect 7 0 39 0;
#X connect 7 0 12 0;
#X connect 7 0 74 0;
#X connect 8 0 5 1;
#X connect 9 0 10 0;
#X connect 10 0 11 0;
#X connect 10 0 13 0;
#X connect 10 0 26 0;
#X connect 11 0 14 0;
#X connect 11 1 15 0;
#X connect 11 2 16 0;
#X connect 11 3 17 0;
#X connect 11 4 18 0;
#X connect 11 5 19 0;
#X connect 11 6 20 0;
#X connect 11 7 21 0;
#X connect 12 0 5 1;
#X connect 12 0 73 0;
#X connect 14 0 107 0;
#X connect 16 0 109 0;
#X connect 18 0 111 0;
#X connect 19 0 113 0;
#X connect 21 0 115 0;
#X connect 23 0 25 1;
#X connect 24 0 23 0;
#X connect 26 0 82 0;
#X connect 26 0 159 0;
#X connect 27 0 36 0;
#X connect 28 0 36 0;
#X connect 29 0 36 0;
#X connect 30 0 36 0;
#X connect 36 0 35 0;
#X connect 38 0 36 0;
#X connect 39 0 5 0;
#X connect 40 0 39 1;
#X connect 40 0 75 0;
#X connect 41 0 39 1;
#X connect 41 0 75 0;
#X connect 44 0 36 0;
#X connect 48 0 132 0;
#X connect 49 0 135 0;
#X connect 50 0 138 0;
#X connect 51 0 141 0;
#X connect 52 0 53 0;
#X connect 52 0 55 0;
#X connect 54 0 52 0;
#X connect 55 0 48 0;
#X connect 55 1 49 0;
#X connect 55 2 50 0;
#X connect 55 3 51 0;
#X connect 56 0 35 0;
#X connect 57 0 65 0;
#X connect 58 0 35 0;
#X connect 59 0 66 0;
#X connect 60 0 61 0;
#X connect 61 0 35 0;
#X connect 62 0 60 0;
#X connect 63 0 35 0;
#X connect 64 0 63 0;
#X connect 65 0 56 0;
#X connect 66 0 58 0;
#X connect 69 0 67 0;
#X connect 70 0 64 0;
#X connect 70 0 57 0;
#X connect 70 0 59 0;
#X connect 70 0 62 0;
#X connect 71 0 72 0;
#X connect 71 0 73 0;
#X connect 72 0 54 0;
#X connect 73 0 71 1;
#X connect 74 0 71 0;
#X connect 75 0 74 1;
#X connect 78 0 76 0;
#X connect 80 0 79 0;
#X connect 82 0 23 0;
#X connect 96 0 97 0;
#X connect 97 0 100 0;
#X connect 97 0 129 0;
#X connect 97 1 133 0;
#X connect 97 2 101 0;
#X connect 97 3 136 0;
#X connect 97 4 102 0;
#X connect 97 4 139 0;
#X connect 97 7 103 0;
#X connect 97 14 104 0;
#X connect 98 0 97 0;
#X connect 99 0 97 0;
#X connect 100 0 106 1;
#X connect 101 0 108 1;
#X connect 102 0 110 1;
#X connect 103 0 112 1;
#X connect 104 0 114 1;
#X connect 105 0 106 0;
#X connect 105 0 108 0;
#X connect 105 0 110 0;
#X connect 105 0 112 0;
#X connect 105 0 114 0;
#X connect 106 0 107 0;
#X connect 107 0 0 0;
#X connect 107 0 2 0;
#X connect 108 0 109 0;
#X connect 109 0 117 0;
#X connect 109 0 2 0;
#X connect 110 0 111 0;
#X connect 111 0 119 0;
#X connect 111 0 2 0;
#X connect 112 0 113 0;
#X connect 113 0 121 0;
#X connect 113 0 2 0;
#X connect 114 0 115 0;
#X connect 115 0 123 0;
#X connect 115 0 2 0;
#X connect 117 0 118 0;
#X connect 119 0 120 0;
#X connect 121 0 122 0;
#X connect 123 0 124 0;
#X connect 125 0 126 1;
#X connect 126 0 4 0;
#X connect 126 0 4 1;
#X connect 127 0 97 0;
#X connect 128 0 97 0;
#X connect 129 0 130 1;
#X connect 130 0 132 0;
#X connect 131 0 130 0;
#X connect 131 0 134 0;
#X connect 131 0 137 0;
#X connect 131 0 140 0;
#X connect 131 0 157 0;
#X connect 132 0 142 0;
#X connect 133 0 134 1;
#X connect 134 0 135 0;
#X connect 135 0 142 0;
#X connect 136 0 137 1;
#X connect 137 0 138 0;
#X connect 138 0 142 0;
#X connect 139 0 140 1;
#X connect 140 0 141 0;
#X connect 141 0 142 0;
#X connect 143 0 145 0;
#X connect 144 0 145 1;
#X connect 145 0 146 0;
#X connect 146 0 126 0;
#X connect 147 0 146 1;
#X connect 148 0 146 2;
#X connect 150 0 149 0;
#X connect 151 0 148 0;
#X connect 152 0 147 0;
#X connect 154 0 153 0;
#X connect 155 0 156 0;
#X connect 156 0 125 0;
#X connect 157 0 158 0;
#X connect 159 0 144 0;
