#N canvas 761 38 455 560 12;
#X obj 21 20 tgl 15 0 empty empty empty 17 7 0 10 #fcfcfc #000000 #000000
0 1;
#X obj 21 63 random 20;
#X obj 21 126 +;
#X obj 21 149 mtof;
#X floatatom 21 172 5 0 0 0 - - - 0;
#X obj 21 194 osc~;
#X obj 21 240 dac~;
#X obj 116 58 sel 1;
#X msg 116 81 80 \, 30 20000;
#X obj 116 124 line;
#X obj 21 217 *~ 0.25;
#X obj 148 105 print;
#X obj 21 40 metro 500;
#X obj 129 209 moses;
#X connect 0 0 7 0;
#X connect 0 0 12 0;
#X connect 1 0 2 0;
#X connect 2 0 3 0;
#X connect 3 0 4 0;
#X connect 4 0 5 0;
#X connect 5 0 10 0;
#X connect 7 0 8 0;
#X connect 8 0 9 0;
#X connect 8 0 11 0;
#X connect 9 0 2 1;
#X connect 10 0 6 0;
#X connect 10 0 6 1;
#X connect 12 0 1 0;
