#N canvas 261 528 954 397 12;
#X obj 42 103 noise~;
#X obj 42 127 *~;
#X obj 24 210 dac~;
#X floatatom 117 84 5 0 0 0 - - - 0;
#X obj 117 107 osc~;
#X text 150 109 lfo;
#X obj 110 146 oscope;
#X obj 42 151 *~ 0.25;
#X msg 57 182 0.25;
#X msg 71 209 0;
#X floatatom 366 112 5 0 0 0 - - - 0;
#X obj 366 193 +~;
#X obj 366 217 osc~;
#X obj 366 265 dac~;
#X msg 311 241 0.25;
#X msg 325 268 0;
#X obj 366 241 *~ 0.25;
#X text 356 87 carrier freq;
#X text 393 192 freq signals added;
#X text 405 217 carrier oscillator;
#X text 123 22 AM Synth;
#X text 369 25 FM Synth;
#X obj 573 241 oscope;
#X text 567 91 modulator freq;
#X floatatom 582 116 5 0 0 0 - - - 0;
#X obj 582 139 osc~;
#X obj 582 163 *~;
#X text 622 139 modulating oscillator;
#X text 610 163 modulating oscillatot's amplitude is scaled;
#X floatatom 796 113 5 0 0 0 - - - 0;
#X text 787 88 modulation depth;
#X connect 0 0 1 0;
#X connect 1 0 6 0;
#X connect 1 0 7 0;
#X connect 3 0 4 0;
#X connect 4 0 1 1;
#X connect 7 0 2 0;
#X connect 7 0 2 1;
#X connect 8 0 7 1;
#X connect 9 0 7 1;
#X connect 10 0 11 0;
#X connect 11 0 12 0;
#X connect 12 0 16 0;
#X connect 12 0 22 0;
#X connect 14 0 16 1;
#X connect 15 0 16 1;
#X connect 16 0 13 0;
#X connect 16 0 13 1;
#X connect 24 0 25 0;
#X connect 25 0 26 0;
#X connect 26 0 11 1;
#X connect 29 0 26 1;
