#N canvas 562 271 1035 732 12;
#X obj 70 84 noise~;
#X obj 70 108 *~ 0.5;
#X obj 127 246 *~;
#X floatatom 145 218 5 0 1 0 - - - 0;
#X obj 145 189 line;
#X msg 146 97 1 1000;
#X obj 146 72 bng 15 250 50 0 empty empty empty 17 7 0 10 #fcfcfc #000000
#000000;
#X text 144 48 attack;
#X obj 245 87 delay 1000;
#X obj 245 115 bng 15 250 50 0 empty empty empty 17 7 0 10 #fcfcfc
#000000 #000000;
#X obj 389 130 delay 3000;
#X obj 493 148 bng 15 250 50 0 empty empty empty 17 7 0 10 #fcfcfc
#000000 #000000;
#X msg 493 170 0 1000;
#X obj 127 275 *~ 0.25;
#X obj 117 304 dac~;
#X text 245 63 decay;
#X text 388 106 sustain;
#X text 490 124 release;
#X msg 245 140 0.5 1500, f 15;
#X connect 0 0 1 0;
#X connect 1 0 2 0;
#X connect 2 0 13 0;
#X connect 3 0 2 1;
#X connect 4 0 3 0;
#X connect 5 0 4 0;
#X connect 6 0 5 0;
#X connect 6 0 8 0;
#X connect 8 0 9 0;
#X connect 9 0 18 0;
#X connect 9 0 10 0;
#X connect 10 0 11 0;
#X connect 11 0 12 0;
#X connect 12 0 4 0;
#X connect 13 0 14 0;
#X connect 13 0 14 1;
#X connect 18 0 4 0;
