#N canvas 876 440 769 537 12;
#X obj 172 106 noise~;
#X obj 299 268 *~;
#X floatatom 317 240 5 0 1 0 - - - 0;
#X obj 317 211 line;
#X obj 318 94 bng 15 250 50 0 empty empty empty 17 7 0 10 #fcfcfc #000000
#000000;
#X text 316 70 attack;
#X obj 417 137 bng 15 250 50 0 empty empty empty 17 7 0 10 #fcfcfc
#000000 #000000;
#X obj 665 170 bng 15 250 50 0 empty empty empty 17 7 0 10 #fcfcfc
#000000 #000000;
#X obj 289 326 dac~;
#X text 417 85 decay;
#X text 560 128 sustain;
#X text 662 146 release;
#X msg 318 119 1 5;
#X obj 417 109 delay 5;
#X msg 665 192 0 300;
#X msg 417 162 0.25 50, f 15;
#X obj 561 152 delay 50;
#X obj 172 130 *~ 1;
#X obj 172 154 bp~ 150 4;
#X obj 172 178 *~ 20;
#X obj 172 202 clip~ -0.9 0.9;
#X obj 73 134 hip~ 8000;
#X obj 73 158 *~ 0.1;
#X obj 299 297 *~ 1;
#X connect 0 0 17 0;
#X connect 0 0 21 0;
#X connect 1 0 23 0;
#X connect 2 0 1 1;
#X connect 3 0 2 0;
#X connect 4 0 12 0;
#X connect 4 0 13 0;
#X connect 6 0 15 0;
#X connect 6 0 16 0;
#X connect 7 0 14 0;
#X connect 12 0 3 0;
#X connect 13 0 6 0;
#X connect 14 0 3 0;
#X connect 15 0 3 0;
#X connect 16 0 7 0;
#X connect 17 0 18 0;
#X connect 18 0 19 0;
#X connect 19 0 20 0;
#X connect 20 0 1 0;
#X connect 21 0 22 0;
#X connect 22 0 20 0;
#X connect 23 0 8 0;
#X connect 23 0 8 1;
