#N canvas 1031 338 282 330 12;
#X obj 11 25 inlet~;
#X obj 11 49 tabwrite~ \$0-oscope;
#X obj 81 5 tgl 15 1 empty empty empty 17 7 0 10 #fcfcfc #000000 #000000
1 1;
#X obj 81 25 metro 100;
#N canvas 0 22 450 278 (subpatch) 0;
#X array \$0-oscope 1581 float 4;
#X coords 0 1 1580 -1 150 100 2 0 0;
#X restore 100 100 graph;
#X msg 100 230 resize \$1;
#X obj 103 200 hsl 145 20 44 4400 1 1 empty empty empty -2 -8 0 10
#c6feff #000000 #000000 11200 1;
#X obj 100 254 s \$0-oscope;
#X connect 0 0 1 0;
#X connect 2 0 3 0;
#X connect 3 0 1 0;
#X connect 5 0 7 0;
#X connect 6 0 5 0;
#X coords 0 -1 1 1 150 120 2 100 100;
