#N canvas 524 326 964 499 12;
#X obj 79 272 oscope;
#X obj 243 273 oscope;
#X obj 403 276 oscope;
#X obj 562 277 oscope;
#X obj 75 83 phasor~ 400;
#X obj 251 95 osc~ 5000;
#X obj 400 170 *~;
#X obj 491 43 phasor~ 20;
#X obj 491 67 expr~ if($v1<0.5 \, 1 \, 0);
#X obj 734 172 *~;
#X obj 722 278 oscope;
#X msg 121 30 4000;
#X msg 154 53 400;
#X connect 4 0 0 0;
#X connect 4 0 6 0;
#X connect 4 0 9 0;
#X connect 5 0 1 0;
#X connect 5 0 6 1;
#X connect 6 0 2 0;
#X connect 7 0 8 0;
#X connect 8 0 3 0;
#X connect 8 0 9 1;
#X connect 9 0 10 0;
#X connect 11 0 4 0;
#X connect 12 0 4 0;
