#N canvas 708 38 597 913 12;
#X obj 162 11 loadbang;
#X msg 162 35 375;
#X floatatom 162 59 5 0 0 0 - - - 0;
#X obj 130 47 tgl 30 0 empty empty empty 0 0 0 20 #c6feff #000000 #000000
0 1;
#X obj 130 87 metro;
#X obj 130 116 bng 15 250 50 0 empty empty empty 17 7 0 10 #fcfcfc
#000000 #000000;
#X obj 81 87 sel 0;
#X obj 11 87 loadbang;
#X obj 81 116 bng 15 250 50 0 empty empty empty 17 7 0 10 #fcfcfc #000000
#000000;
#X msg 81 136 -1;
#X obj 131 160 int 1;
#X obj 186 165 + 1;
#X floatatom 131 183 5 0 0 0 - - - 0;
#X obj 131 205 % 8;
#X obj 131 228 + 1;
#X floatatom 131 251 5 0 0 0 - - - 0;
#X obj 59 294 sel 1;
#X obj 59 317 bng 15 250 50 0 empty empty empty 17 7 0 10 #fcfcfc #000000
#000000;
#X obj 59 337 s One;
#X obj 115 317 bng 15 250 50 0 empty empty empty 17 7 0 10 #fcfcfc
#000000 #000000;
#X obj 171 317 bng 15 250 50 0 empty empty empty 17 7 0 10 #fcfcfc
#000000 #000000;
#X obj 234 317 bng 15 250 50 0 empty empty empty 17 7 0 10 #fcfcfc
#000000 #000000;
#X obj 290 317 bng 15 250 50 0 empty empty empty 17 7 0 10 #fcfcfc
#000000 #000000;
#X obj 346 317 bng 15 250 50 0 empty empty empty 17 7 0 10 #fcfcfc
#000000 #000000;
#X obj 402 317 bng 15 250 50 0 empty empty empty 17 7 0 10 #fcfcfc
#000000 #000000;
#X obj 465 317 bng 15 250 50 0 empty empty empty 17 7 0 10 #fcfcfc
#000000 #000000;
#X obj 115 294 sel 2;
#X obj 115 337 s Two;
#X obj 171 337 s Three;
#X obj 171 294 sel 3;
#X obj 234 294 sel 4;
#X obj 234 337 s Four;
#X obj 290 294 sel 5;
#X obj 290 337 s Five;
#X obj 346 337 s Six;
#X obj 346 294 sel 6;
#X obj 402 294 sel 7;
#X obj 402 337 s Seven;
#X obj 465 294 sel 8;
#X obj 465 337 s Eight;
#X obj 59 375 r One;
#X obj 115 375 r Two;
#X obj 171 375 r Three;
#X obj 234 375 r Four;
#X obj 290 375 r Five;
#X obj 346 375 r Six;
#X obj 402 375 r Seven;
#X obj 465 375 r Eight;
#X obj 59 403 bng 15 250 50 0 empty empty empty 17 7 0 10 #fcfcfc #000000
#000000;
#X obj 59 423 spigot;
#X obj 59 446 bng 15 250 50 0 empty empty empty 17 7 0 10 #fcfcfc #000000
#000000;
#X obj 85 403 tgl 20 0 empty empty empty 17 7 0 10 #fcfcfc #000000
#000000 0 1;
#X obj 115 403 bng 15 250 50 0 empty empty empty 17 7 0 10 #fcfcfc
#000000 #000000;
#X obj 115 423 spigot;
#X obj 115 446 bng 15 250 50 0 empty empty empty 17 7 0 10 #fcfcfc
#000000 #000000;
#X obj 141 403 tgl 20 0 empty empty empty 17 7 0 10 #fcfcfc #000000
#000000 0 1;
#X obj 171 403 bng 15 250 50 0 empty empty empty 17 7 0 10 #fcfcfc
#000000 #000000;
#X obj 171 423 spigot;
#X obj 171 446 bng 15 250 50 0 empty empty empty 17 7 0 10 #fcfcfc
#000000 #000000;
#X obj 197 403 tgl 20 0 empty empty empty 17 7 0 10 #fcfcfc #000000
#000000 0 1;
#X obj 234 403 bng 15 250 50 0 empty empty empty 17 7 0 10 #fcfcfc
#000000 #000000;
#X obj 234 423 spigot;
#X obj 234 446 bng 15 250 50 0 empty empty empty 17 7 0 10 #fcfcfc
#000000 #000000;
#X obj 260 403 tgl 20 0 empty empty empty 17 7 0 10 #fcfcfc #000000
#000000 0 1;
#X obj 290 403 bng 15 250 50 0 empty empty empty 17 7 0 10 #fcfcfc
#000000 #000000;
#X obj 290 423 spigot;
#X obj 290 446 bng 15 250 50 0 empty empty empty 17 7 0 10 #fcfcfc
#000000 #000000;
#X obj 316 403 tgl 20 0 empty empty empty 17 7 0 10 #fcfcfc #000000
#000000 0 1;
#X obj 346 403 bng 15 250 50 0 empty empty empty 17 7 0 10 #fcfcfc
#000000 #000000;
#X obj 346 423 spigot;
#X obj 346 446 bng 15 250 50 0 empty empty empty 17 7 0 10 #fcfcfc
#000000 #000000;
#X obj 372 403 tgl 20 0 empty empty empty 17 7 0 10 #fcfcfc #000000
#000000 0 1;
#X obj 402 403 bng 15 250 50 0 empty empty empty 17 7 0 10 #fcfcfc
#000000 #000000;
#X obj 402 423 spigot;
#X obj 402 446 bng 15 250 50 0 empty empty empty 17 7 0 10 #fcfcfc
#000000 #000000;
#X obj 428 403 tgl 20 0 empty empty empty 17 7 0 10 #fcfcfc #000000
#000000 0 1;
#X obj 465 403 bng 15 250 50 0 empty empty empty 17 7 0 10 #fcfcfc
#000000 #000000;
#X obj 465 423 spigot;
#X obj 465 446 bng 15 250 50 0 empty empty empty 17 7 0 10 #fcfcfc
#000000 #000000;
#X obj 491 403 tgl 20 0 empty empty empty 17 7 0 10 #fcfcfc #000000
#000000 0 1;
#X obj 232 654 receive Kick;
#X obj 232 683 bng 15 250 50 0 empty empty empty 17 7 0 10 #fcfcfc
#000000 #000000;
#X obj 232 727 readsf~;
#X obj 232 751 *~ 0.5;
#X obj 222 781 dac~;
#X obj 262 543 send Kick;
#X msg 232 703 open kick.wav \, 1;
#X connect 0 0 1 0;
#X connect 1 0 2 0;
#X connect 2 0 4 1;
#X connect 3 0 4 0;
#X connect 3 0 6 0;
#X connect 4 0 5 0;
#X connect 5 0 10 0;
#X connect 6 0 8 0;
#X connect 7 0 8 0;
#X connect 8 0 9 0;
#X connect 9 0 10 0;
#X connect 10 0 11 0;
#X connect 10 0 12 0;
#X connect 11 0 10 1;
#X connect 12 0 13 0;
#X connect 13 0 14 0;
#X connect 14 0 15 0;
#X connect 15 0 16 0;
#X connect 15 0 38 0;
#X connect 15 0 36 0;
#X connect 15 0 35 0;
#X connect 15 0 32 0;
#X connect 15 0 30 0;
#X connect 15 0 29 0;
#X connect 15 0 26 0;
#X connect 16 0 17 0;
#X connect 17 0 18 0;
#X connect 19 0 27 0;
#X connect 20 0 28 0;
#X connect 21 0 31 0;
#X connect 22 0 33 0;
#X connect 23 0 34 0;
#X connect 24 0 37 0;
#X connect 25 0 39 0;
#X connect 26 0 19 0;
#X connect 29 0 20 0;
#X connect 30 0 21 0;
#X connect 32 0 22 0;
#X connect 35 0 23 0;
#X connect 36 0 24 0;
#X connect 38 0 25 0;
#X connect 40 0 48 0;
#X connect 41 0 52 0;
#X connect 42 0 56 0;
#X connect 43 0 60 0;
#X connect 44 0 64 0;
#X connect 45 0 68 0;
#X connect 46 0 72 0;
#X connect 47 0 76 0;
#X connect 48 0 49 0;
#X connect 49 0 50 0;
#X connect 50 0 85 0;
#X connect 51 0 49 1;
#X connect 52 0 53 0;
#X connect 53 0 54 0;
#X connect 54 0 85 0;
#X connect 55 0 53 1;
#X connect 56 0 57 0;
#X connect 57 0 58 0;
#X connect 58 0 85 0;
#X connect 59 0 57 1;
#X connect 60 0 61 0;
#X connect 61 0 62 0;
#X connect 62 0 85 0;
#X connect 63 0 61 1;
#X connect 64 0 65 0;
#X connect 65 0 66 0;
#X connect 66 0 85 0;
#X connect 67 0 65 1;
#X connect 68 0 69 0;
#X connect 69 0 70 0;
#X connect 70 0 85 0;
#X connect 71 0 69 1;
#X connect 72 0 73 0;
#X connect 73 0 74 0;
#X connect 74 0 85 0;
#X connect 75 0 73 1;
#X connect 76 0 77 0;
#X connect 77 0 78 0;
#X connect 78 0 85 0;
#X connect 79 0 77 1;
#X connect 80 0 81 0;
#X connect 81 0 86 0;
#X connect 82 0 83 0;
#X connect 83 0 84 0;
#X connect 83 0 84 1;
#X connect 86 0 82 0;
