#N canvas 1144 467 491 312 12;
#X obj 50 15 noise~;
#X obj 71 93 *~;
#X obj 71 117 dac~;
#X floatatom 112 68 5 0 1 0 Vol - - 0;
#X obj 171 54 ctlin 7;
#X obj 171 78 / 127;
#X obj 32 186 ctlin;
#X floatatom 32 210 5 0 0 0 - - - 0;
#X obj 50 39 bp~ 1000 5;
#X floatatom 48 235 5 0 0 0 - - - 0;
#X floatatom 72 267 5 0 0 0 - - - 0;
#X obj 134 10 * 50;
#X obj 293 30 noise~;
#X obj 293 139 *~;
#X obj 290 164 dac~;
#X obj 326 110 vline~;
#X obj 372 17 notein;
#X obj 387 51 / 127;
#X msg 326 86 \$1 \, 0 10;
#X connect 0 0 8 0;
#X connect 1 0 2 0;
#X connect 1 0 2 1;
#X connect 3 0 1 1;
#X connect 4 0 5 0;
#X connect 4 0 11 0;
#X connect 5 0 3 0;
#X connect 6 0 7 0;
#X connect 6 1 9 0;
#X connect 6 2 10 0;
#X connect 8 0 1 0;
#X connect 11 0 8 1;
#X connect 12 0 13 0;
#X connect 13 0 14 0;
#X connect 13 0 14 1;
#X connect 15 0 13 1;
#X connect 16 1 17 0;
#X connect 17 0 18 0;
#X connect 18 0 15 0;
