#N canvas 932 209 704 458 12;
#X obj 59 79 phasor~;
#X floatatom 58 30 5 0 0 0 - - - 0;
#X obj 59 103 expr~ $v1 * 2 -1;
#X obj 75 291 *~;
#X obj 75 315 dac~;
#X floatatom 109 187 5 0 1 0 - - - 0;
#X obj 108 214 vline~;
#X msg 165 184 1 5 0 \, 0 500 5;
#X obj 108 238 *~;
#X text 136 241 multiply line to itself for more natural sound;
#X obj 327 48 notein;
#X obj 327 80 stripnote;
#X floatatom 327 104 5 0 0 0 - - - 0;
#X obj 327 127 mtof;
#X floatatom 384 104 5 0 0 0 - - - 0;
#X obj 384 127 / 127;
#X obj 602 111 sel 0;
#X msg 603 140 0 1000;
#X obj 440 181 * 0.5;
#X obj 384 181 pack;
#X obj 384 151 trigger f f;
#X msg 384 208 \$1 5 \, \$2 500 5;
#X text 433 118 trigger for order of operations;
#X connect 0 0 2 0;
#X connect 1 0 0 0;
#X connect 2 0 3 0;
#X connect 3 0 4 0;
#X connect 3 0 4 1;
#X connect 5 0 6 0;
#X connect 6 0 8 0;
#X connect 6 0 8 1;
#X connect 7 0 6 0;
#X connect 8 0 3 1;
#X connect 10 0 11 0;
#X connect 10 1 11 1;
#X connect 10 1 16 0;
#X connect 11 0 12 0;
#X connect 11 1 14 0;
#X connect 12 0 13 0;
#X connect 13 0 1 0;
#X connect 14 0 15 0;
#X connect 15 0 20 0;
#X connect 16 0 17 0;
#X connect 17 0 6 0;
#X connect 18 0 19 1;
#X connect 19 0 21 0;
#X connect 20 0 19 0;
#X connect 20 1 18 0;
#X connect 21 0 6 0;
