#N canvas 658 362 545 494 12;
#X obj 32 253 dac~;
#N canvas 1108 587 450 300 tone 0;
#X floatatom 37 70 5 0 0 0 - - - 0;
#X obj 37 93 osc~;
#X obj 37 117 *~;
#X floatatom 125 97 5 0 1 0 - - - 0;
#X obj 37 37 inlet;
#X obj 123 38 inlet;
#X obj 38 147 outlet~;
#X obj 224 51 receive freq;
#X floatatom 224 75 5 0 0 0 - - - 0;
#X connect 0 0 1 0;
#X connect 1 0 2 0;
#X connect 2 0 6 0;
#X connect 3 0 2 1;
#X connect 4 0 0 0;
#X connect 5 0 3 0;
#X connect 7 0 8 0;
#X connect 8 0 0 0;
#X restore 28 199 pd tone;
#X floatatom 16 140 5 0 0 0 - - - 0;
#X floatatom 71 150 5 0 1 0 - - - 0;
#X obj 47 51 send freq;
#X floatatom 48 24 5 0 0 0 - - - 0;
#X obj 304 21 throw~;
#X obj 369 21 send~;
#X obj 304 44 catch~;
#X obj 369 44 receive~;
#X obj 145 200 tone-abs;
#X floatatom 145 162 5 0 0 0 - - - 0;
#X floatatom 194 153 5 0 0 0 - - - 0;
#X msg 277 142 \; freq 300 \; amp 0.2;
#X text 275 119 preset;
#X msg 279 205 \; amp 0;
#X obj 182 274 scope-abs;
#X connect 1 0 0 0;
#X connect 1 0 0 1;
#X connect 1 0 16 0;
#X connect 2 0 1 0;
#X connect 3 0 1 1;
#X connect 5 0 4 0;
#X connect 10 0 0 0;
#X connect 10 0 0 1;
#X connect 11 0 10 0;
#X connect 12 0 10 1;
