#N canvas 982 170 588 354 12;
#X obj 191 418 *~;
#X floatatom 228 376 5 0 1 0 - - -, f 5;
#X obj 181 462 dac~;
#X floatatom 58 110 5 0 0 0 - - -, f 5;
#N canvas 1196 38 450 300 oscillators 0;
#X obj 48 91 phasor~;
#X floatatom 48 45 5 0 0 0 - - -, f 5;
#X obj 181 62 * 1.001;
#X obj 181 91 phasor~;
#X obj 181 120 expr~ $v1 *2 + 1;
#X obj 48 120 expr~ $v1 *2 + 1;
#X obj 48 14 inlet;
#X obj 66 218 outlet~;
#X connect 0 0 5 0;
#X connect 1 0 0 0;
#X connect 1 0 2 0;
#X connect 2 0 3 0;
#X connect 3 0 4 0;
#X connect 5 0 7 0;
#X connect 6 0 1 0;
#X restore 58 132 pd oscillators;
#X obj 98 4 notein;
#X obj 58 87 mtof;
#N canvas 639 38 450 300 filters 0;
#X obj 144 152 bob~;
#X msg 160 116 300;
#X msg 193 116 1.5;
#X obj 162 76 loadbang;
#X obj 141 46 inlet~;
#X obj 142 195 outlet~;
#X floatatom 258 64 5 0 0 0 - - -, f 5;
#X obj 258 92 / 127;
#X obj 258 121 pow 4;
#X obj 258 150 * 10000;
#X obj 258 179 + 20;
#X obj 258 35 receive cutoff1;
#X connect 0 0 5 0;
#X connect 1 0 0 1;
#X connect 2 0 0 2;
#X connect 3 0 1 0;
#X connect 3 0 2 0;
#X connect 4 0 0 0;
#X connect 6 0 7 0;
#X connect 7 0 8 0;
#X connect 8 0 9 0;
#X connect 9 0 10 0;
#X connect 10 0 0 1;
#X connect 11 0 6 0;
#X restore 59 169 pd filters;
#X obj 92 49 stripnote;
#N canvas 1265 62 389 521 amplifiers 0;
#X obj 101 314 vline~;
#X msg 109 260 \$1 5 \, 0 700 5;
#X obj 292 75 / 127;
#X obj 319 111 * 0.5;
#X obj 292 148 pack;
#X obj 62 71 sel 0;
#X obj 72 347 *~;
#X obj 84 17 inlet;
#X obj 291 19 inlet;
#X obj 16 23 inlet~;
#X obj 72 376 outlet~;
#X floatatom 292 51 5 0 0 0 - - -, f 5;
#X obj 132 38 receive releaseRate;
#X floatatom 132 67 5 0 0 0 - - -, f 5;
#X obj 132 95 * 20;
#X floatatom 132 124 5 0 0 0 - - -, f 5;
#X msg 76 196 0 \$1;
#X obj 101 159 f;
#X obj 62 100 bng 15 250 50 0 empty empty empty 17 7 0 10 #fcfcfc #000000
#000000;
#X msg 142 185 700;
#X obj 140 154 loadbang;
#X connect 0 0 6 1;
#X connect 1 0 0 0;
#X connect 2 0 3 0;
#X connect 2 0 4 0;
#X connect 3 0 4 1;
#X connect 4 0 1 0;
#X connect 5 0 18 0;
#X connect 6 0 10 0;
#X connect 7 0 5 0;
#X connect 8 0 11 0;
#X connect 9 0 6 0;
#X connect 11 0 2 0;
#X connect 12 0 13 0;
#X connect 13 0 14 0;
#X connect 14 0 15 0;
#X connect 15 0 17 1;
#X connect 16 0 0 0;
#X connect 17 0 16 0;
#X connect 18 0 17 0;
#X connect 19 0 17 1;
#X connect 20 0 19 0;
#X restore 60 202 pd amplifiers;
#X floatatom 198 105 5 0 0 0 - - -, f 5;
#X floatatom 271 37 5 0 0 0 - - -, f 5;
#X floatatom 377 37 5 0 0 0 - - -, f 5;
#X obj 457 87 ctlin;
#X floatatom 457 116 5 0 0 0 - - -, f 5;
#X floatatom 471 141 5 0 0 0 - - -, f 5;
#X floatatom 487 168 5 0 0 0 - - -, f 5;
#X obj 271 8 ctlin 1;
#X obj 316 384 ctlin 7;
#X obj 316 413 / 127;
#X obj 377 65 send releaseRate;
#X obj 273 67 send cutoff1;
#X obj 377 8 ctlin 64;
#X connect 0 0 2 0;
#X connect 0 0 2 1;
#X connect 1 0 0 1;
#X connect 3 0 4 0;
#X connect 4 0 7 0;
#X connect 5 0 8 0;
#X connect 5 1 8 1;
#X connect 5 1 9 1;
#X connect 6 0 3 0;
#X connect 7 0 9 0;
#X connect 8 0 6 0;
#X connect 8 1 10 0;
#X connect 9 0 0 0;
#X connect 10 0 9 2;
#X connect 11 0 21 0;
#X connect 12 0 20 0;
#X connect 13 0 14 0;
#X connect 13 1 15 0;
#X connect 13 2 16 0;
#X connect 17 0 11 0;
#X connect 18 0 19 0;
#X connect 19 0 1 0;
#X connect 22 0 12 0;
