#N canvas 648 251 564 431 12;
#X obj 132 78 notein;
#X floatatom 8 127 5 0 0 0 - - - 0;
#X floatatom 46 127 5 0 0 0 - - - 0;
#X floatatom 83 127 5 0 0 0 - - - 0;
#X obj 131 158 pack 0 0 0;
#X obj 131 132 - 1;
#X obj 112 273 dac~;
#X floatatom 248 103 5 0 0 0 - - - 0;
#X floatatom 341 103 5 0 0 0 - - - 0;
#X obj 248 82 ctlin 1;
#X obj 341 123 send releaseRate;
#X obj 248 123 send cutoff1;
#X obj 341 82 ctlin 64;
#X obj 132 107 poly 4 1;
#X obj 131 198 clone mono-synth 4;
#X floatatom 290 221 5 0 0 0 - - - 0;
#X obj 290 200 ctlin 7;
#X obj 290 241 / 127;
#X obj 128 232 *~;
#X floatatom 225 10 5 0 0 0 - - - 0;
#X obj 225 30 lfo;
#X floatatom 225 51 5 0 0 0 - - - 0;
#X floatatom 342 10 5 0 0 0 - - - 0;
#X obj 342 30 lfo;
#X floatatom 342 51 5 0 0 0 - - - 0;
#X connect 0 0 13 0;
#X connect 0 1 13 1;
#X connect 4 0 14 0;
#X connect 5 0 4 0;
#X connect 7 0 11 0;
#X connect 8 0 10 0;
#X connect 9 0 7 0;
#X connect 12 0 8 0;
#X connect 13 0 1 0;
#X connect 13 0 5 0;
#X connect 13 1 2 0;
#X connect 13 1 4 1;
#X connect 13 2 3 0;
#X connect 13 2 4 2;
#X connect 14 0 18 0;
#X connect 15 0 17 0;
#X connect 16 0 15 0;
#X connect 17 0 18 1;
#X connect 18 0 6 0;
#X connect 18 0 6 1;
#X connect 19 0 20 0;
#X connect 20 0 21 0;
#X connect 21 0 7 0;
#X connect 22 0 23 0;
#X connect 23 0 24 0;
#X connect 24 0 8 0;
