#N canvas 1204 392 450 456 12;
#X floatatom 177 197 5 0 1 0 - - - 0;
#X obj 158 223 *~;
#X obj 158 271 dac~;
#X obj 29 87 vu 15 120 empty empty -1 -8 0 10 #404040 #000000 1 0;
#X obj 110 138 env~;
#X obj 152 87 *~;
#X floatatom 168 65 5 0 100 0 - - - 0;
#X obj 110 165 - 90;
#X obj 150 40 adc~ 1;
#X obj 158 155 clip~ -1 1;
#X floatatom 231 92 5 0 0 0 - - - 0;
#X obj 194 128 * -1;
#X obj 95 329 writesf~ 1;
#X msg 10 233 open mysound.wav;
#X msg 41 258 start;
#X msg 63 282 stop;
#X connect 0 0 1 1;
#X connect 1 0 2 0;
#X connect 1 0 2 1;
#X connect 1 0 12 0;
#X connect 4 0 7 0;
#X connect 5 0 4 0;
#X connect 5 0 9 0;
#X connect 6 0 5 1;
#X connect 7 0 3 0;
#X connect 8 0 5 0;
#X connect 9 0 1 0;
#X connect 10 0 11 0;
#X connect 10 0 9 2;
#X connect 11 0 9 1;
#X connect 13 0 12 0;
#X connect 14 0 12 0;
#X connect 15 0 12 0;
