#N canvas 1217 252 450 518 12;
#X obj 129 167 +~;
#X obj 46 39 phasor~;
#X obj 46 63 expr~ $v1 * 2 - 1;
#X floatatom 46 17 5 0 0 0 - - - 0;
#X obj 49 101 *~;
#X floatatom 83 84 5 0 1 0 - - - 0;
#X obj 127 332 dac~;
#X obj 128 205 *~;
#X obj 200 188 hsl 128 15 0.005 0.5 0 0 empty empty empty -2 -8 0 10
#c6ffc7 #000000 #000000 0 1;
#X obj 206 52 phasor~;
#X obj 206 76 expr~ $v1 * 2 - 1;
#X floatatom 206 30 5 0 0 0 - - - 0;
#X obj 209 114 *~;
#X floatatom 243 97 5 0 1 0 - - - 0;
#X obj 198 216 pow 2;
#X text 240 211 use power to get log curve;
#X obj 119 303 panner;
#X obj 260 432 *~;
#X obj 294 431 *~;
#X floatatom 329 388 5 0 1 0 - - - 0;
#X msg 372 418 1;
#X obj 366 454 -;
#X text 267 389 linear panner;
#X floatatom 162 270 5 0 1 0 - - - 0;
#X connect 0 0 7 0;
#X connect 1 0 2 0;
#X connect 2 0 4 0;
#X connect 3 0 1 0;
#X connect 4 0 0 0;
#X connect 5 0 4 1;
#X connect 7 0 16 0;
#X connect 8 0 14 0;
#X connect 9 0 10 0;
#X connect 10 0 12 0;
#X connect 11 0 9 0;
#X connect 12 0 0 1;
#X connect 13 0 12 1;
#X connect 14 0 7 1;
#X connect 16 0 6 0;
#X connect 16 1 6 1;
#X connect 19 0 18 1;
#X connect 19 0 21 1;
#X connect 19 0 20 0;
#X connect 20 0 21 0;
#X connect 21 0 17 1;
#X connect 23 0 16 1;
