#N canvas 1084 285 529 403 12;
#X obj 84 80 expr~ $v1 * 2 - 1;
#X obj 84 104 delwrite~ \$0-buffer 100;
#X obj 273 261 delread4~ \$0-buffer;
#X obj 238 313 *~;
#X obj 304 289 hsl 128 15 0 1 0 0 empty empty empty -2 -8 0 10 #c7c6ff
#000000 #000000 0 1;
#X obj 247 359 dac~;
#X obj 322 38 hsl 128 15 0.02 2 1 0 empty empty empty -2 -8 0 10 #fcfcfc
#000000 #000000 0 1;
#X floatatom 318 60 5 0 0 0 - - - 0;
#X obj 318 83 osc~;
#X obj 318 107 expr~ ($v1 + 1) / 2;
#X obj 318 131 *~;
#X floatatom 355 136 5 0 90 0 - - - 0;
#X obj 295 200 +~ 5;
#X obj 118 258 delread4~ \$0-buffer;
#X obj 283 318 *~;
#X obj 84 56 phasor~ 440;
#X connect 0 0 1 0;
#X connect 2 0 14 0;
#X connect 2 0 3 0;
#X connect 3 0 5 0;
#X connect 3 0 5 1;
#X connect 4 0 3 1;
#X connect 4 0 14 1;
#X connect 6 0 7 0;
#X connect 7 0 8 0;
#X connect 8 0 9 0;
#X connect 9 0 10 0;
#X connect 10 0 12 0;
#X connect 11 0 10 1;
#X connect 12 0 2 0;
#X connect 13 0 3 0;
#X connect 15 0 0 0;
