#N canvas 481 647 759 390 12;
#X obj 37 38 tgl 15 0 empty empty empty 17 7 0 10 #fcfcfc #000000 #000000
0 1;
#X obj 37 88 metro 0.25 120 permin;
#X obj 37 180 % 4;
#X obj 37 204 array get \$0-pitches;
#X floatatom 37 228 5 0 0 0 - - - 0;
#X floatatom 84 255 5 0 0 2 Slew - - 0;
#X obj 135 255 hsl 128 15 0 127 0 0 empty empty Volume -2 -8 0 12 #fcfcfc
#000000 #000000 0 1;
#X obj 74 156 + 1;
#X text 104 143 +1 assending -1 decending;
#X floatatom 62 38 5 0 0 0 - - - 0;
#X msg 62 61 tempo \$1 permin;
#X msg 55 124 0;
#X obj 37 156 i;
#X obj 251 38 notein;
#X obj 251 62 stripnote;
#X obj 251 86 t f b;
#X obj 251 134 array set \$0-pitches;
#N canvas 0 22 450 278 (subpatch) 0;
#X array \$0-pitches 4 float 1;
#A 0 0 0 0 0;
#X coords 0 1 3 -1 200 140 1;
#X restore 430 65 graph;
#X obj 301 86 i;
#X obj 337 86 + 1;
#X obj 337 110 % 4;
#X obj 38 294 synth;
#X connect 0 0 1 0;
#X connect 0 0 11 0;
#X connect 1 0 12 0;
#X connect 2 0 3 0;
#X connect 3 0 4 0;
#X connect 4 0 21 0;
#X connect 5 0 21 1;
#X connect 6 0 21 2;
#X connect 7 0 12 1;
#X connect 9 0 10 0;
#X connect 10 0 1 0;
#X connect 11 0 12 1;
#X connect 12 0 2 0;
#X connect 12 0 7 0;
#X connect 13 0 14 0;
#X connect 13 1 14 1;
#X connect 14 0 15 0;
#X connect 15 0 16 0;
#X connect 18 0 16 1;
#X connect 18 0 19 0;
#X connect 19 0 20 0;
#X connect 20 0 18 1;
