#N canvas 401 401 748 560 12;
#X obj 142 209 mtof;
#X obj 172 352 *~;
#X obj 184 435 dac~;
#X obj 37 353 hsl 128 15 0.01 1 1 0 empty empty empty -2 -8 0 10 #c6feff
#000000 #000000 0 1;
#X obj 34 373 - 0.01;
#X obj 142 87 tgl 15 0 empty empty empty 17 7 0 10 #fcfcfc #000000
#000000 0 1;
#X obj 142 127 random 25;
#X obj 142 149 + 48;
#X obj 142 179 quant;
#X obj 221 87 tgl 15 0 empty empty empty 17 7 0 10 #fcfcfc #000000
#000000 0 1;
#X obj 221 149 + 48;
#X obj 221 179 quant;
#X obj 221 127 random 25;
#X obj 221 209 mtof;
#X obj 221 233 osc~;
#X obj 221 105 metro 400;
#X obj 142 105 metro 800;
#X obj 208 352 *~;
#X obj 241 352 hsl 128 15 0.01 1 1 0 empty empty empty -2 -8 0 10 #c6feff
#000000 #000000 0 1;
#X obj 238 372 - 0.01;
#X obj 221 289 delayy;
#X obj 137 293 delayy;
#X msg 428 242 400;
#X msg 475 243 800;
#X obj 429 194 loadbang;
#X msg 516 244 0.25;
#X msg 532 163 48;
#X msg 566 163 40;
#X msg 599 163 52;
#X obj 525 91 hradio 15 1 0 4 empty empty empty 0 -8 0 10 #fcfcfc #000000
#000000 0;
#X obj 495 41 tgl 15 0 empty empty empty 17 7 0 10 #fcfcfc #000000
#000000 0 1;
#X floatatom 467 85 5 0 0 0 - - - 0;
#X obj 525 111 select 0 1 2 3;
#X msg 635 164 56;
#X obj 531 206 bng 15 250 50 0 empty empty empty 17 7 0 10 #fcfcfc
#000000 #000000;
#X floatatom 455 166 5 0 0 0 - - - 0;
#X floatatom 467 125 5 0 0 0 - - - 0;
#X obj 530 42 metro 4000;
#X obj 530 66 random 4;
#X obj 142 233 osc~;
#X obj 475 356 line;
#X floatatom 475 380 5 0 0 0 - - - 0;
#X text 593 320 fade out;
#X text 601 358 fade in;
#X msg 528 358 0 \, 1 8000;
#X msg 513 320 1 \, 0 15000;
#X connect 0 0 39 0;
#X connect 1 0 2 0;
#X connect 3 0 4 0;
#X connect 4 0 1 1;
#X connect 5 0 16 0;
#X connect 6 0 7 0;
#X connect 7 0 8 0;
#X connect 8 0 0 0;
#X connect 9 0 15 0;
#X connect 10 0 11 0;
#X connect 11 0 13 0;
#X connect 12 0 10 0;
#X connect 13 0 14 0;
#X connect 14 0 20 0;
#X connect 15 0 12 0;
#X connect 16 0 6 0;
#X connect 17 0 2 1;
#X connect 18 0 19 0;
#X connect 19 0 17 1;
#X connect 20 0 17 0;
#X connect 20 1 17 0;
#X connect 21 0 1 0;
#X connect 21 1 1 0;
#X connect 22 0 15 1;
#X connect 22 0 21 1;
#X connect 23 0 16 1;
#X connect 23 0 20 1;
#X connect 24 0 22 0;
#X connect 24 0 23 0;
#X connect 24 0 25 0;
#X connect 24 0 26 0;
#X connect 24 0 30 0;
#X connect 25 0 18 0;
#X connect 25 0 3 0;
#X connect 26 0 34 0;
#X connect 26 0 35 0;
#X connect 27 0 35 0;
#X connect 28 0 35 0;
#X connect 29 0 32 0;
#X connect 29 0 36 0;
#X connect 30 0 37 0;
#X connect 32 0 26 0;
#X connect 32 1 27 0;
#X connect 32 2 28 0;
#X connect 32 3 33 0;
#X connect 35 0 7 1;
#X connect 35 0 10 1;
#X connect 37 0 38 0;
#X connect 38 0 29 0;
#X connect 38 0 31 0;
#X connect 39 0 21 0;
#X connect 40 0 41 0;
#X connect 41 0 18 0;
#X connect 41 0 3 0;
#X connect 44 0 40 0;
#X connect 45 0 40 0;
