#N canvas 718 225 688 595 12;
#X obj 77 52 metro 0.5 120 permin;
#X obj 77 74 bng 15 250 50 0 empty empty empty 17 7 0 10 #fcfcfc #000000
#000000;
#X obj 77 34 tgl 15 0 empty empty empty 17 7 0 10 #fcfcfc #000000 #000000
0 1;
#X obj 77 92 f;
#X obj 105 92 + 1;
#X floatatom 77 114 5 0 0 0 - - - 0;
#X msg 133 92 0;
#X obj 77 135 % 8;
#X obj 77 157 hradio 15 1 0 8 empty empty empty 0 -8 0 10 #ffe3c6 #000000
#000000 0;
#X obj 271 135 % 8;
#X obj 271 157 hradio 15 1 0 8 empty empty empty 0 -8 0 10 #ffe3c6
#000000 #000000 0;
#X obj 271 105 sel -1;
#X obj 271 51 expr if($f1 >= 16 && $f1 < 8*4 \, $f1 \, -1);
#X obj 271 81 expr if($f1 >= 16 \, $f1 \, -1);
#N canvas 536 501 450 278 (subpatch) 0;
#X array seq3 8 float 3;
#A 0 94.8201 94.8201 94.4604 94.4604 94.4604 94.8201 94.8201 94.4604
;
#X coords 0 120 8 20 110 50 1 0 0;
#X restore 87 191 graph;
#X floatatom 78 273 5 0 0 0 - - - 0;
#X msg 122 273 0 2 3 7 9;
#X obj 78 303 quant;
#X floatatom 78 327 5 0 0 0 - - - 0;
#X obj 79 353 mtof;
#X obj 122 302 phasor~;
#X obj 122 326 *~ 2;
#X obj 122 350 +~ 1;
#X obj 122 374 vcf~ 1;
#X obj 123 441 dac~;
#X obj 174 374 vline~;
#X msg 174 352 0.5 10 \, 0 400 20;
#X obj 122 398 *~;
#N canvas 0 22 450 278 (subpatch) 0;
#X array seq2 8 float 3;
#A 0 78 78 64 78 70 62 64 66;
#X coords 0 120 8 20 110 50 1 0 0;
#X restore 279 198 graph;
#X floatatom 312 292 5 0 0 0 - - - 0;
#X msg 356 292 0 2 3 7 9;
#X obj 312 322 quant;
#X floatatom 312 346 5 0 0 0 - - - 0;
#X obj 313 372 mtof;
#X obj 356 321 phasor~;
#X obj 356 345 *~ 2;
#X obj 356 369 +~ 1;
#X obj 356 393 vcf~ 1;
#X obj 357 460 dac~;
#X obj 408 393 vline~;
#X msg 408 371 0.5 10 \, 0 400 20;
#X obj 356 417 *~;
#X obj 312 268 array get seq2;
#X obj 78 249 array get seq3;
#X connect 0 0 1 0;
#X connect 1 0 3 0;
#X connect 2 0 0 0;
#X connect 3 0 4 0;
#X connect 3 0 5 0;
#X connect 4 0 3 1;
#X connect 5 0 7 0;
#X connect 5 0 13 0;
#X connect 6 0 3 1;
#X connect 7 0 8 0;
#X connect 8 0 43 0;
#X connect 9 0 10 0;
#X connect 10 0 42 0;
#X connect 11 1 9 0;
#X connect 13 0 11 0;
#X connect 15 0 17 0;
#X connect 15 0 26 0;
#X connect 16 0 17 0;
#X connect 17 0 18 0;
#X connect 18 0 19 0;
#X connect 19 0 20 0;
#X connect 19 0 23 1;
#X connect 20 0 21 0;
#X connect 21 0 22 0;
#X connect 22 0 23 0;
#X connect 23 0 27 0;
#X connect 25 0 27 1;
#X connect 26 0 25 0;
#X connect 27 0 24 0;
#X connect 29 0 31 0;
#X connect 29 0 40 0;
#X connect 30 0 31 0;
#X connect 31 0 32 0;
#X connect 32 0 33 0;
#X connect 33 0 34 0;
#X connect 33 0 37 1;
#X connect 34 0 35 0;
#X connect 35 0 36 0;
#X connect 36 0 37 0;
#X connect 37 0 41 0;
#X connect 39 0 41 1;
#X connect 40 0 39 0;
#X connect 41 0 38 1;
#X connect 42 0 29 0;
#X connect 43 0 15 0;
