#N canvas 1190 469 467 403 12;
#X obj 25 20 key;
#X floatatom 25 42 5 0 0 0 - - - 0;
#X obj 65 20 keyup;
#X floatatom 65 42 5 0 0 0 - - - 0;
#X obj 130 156 osc~;
#X msg 33 104 440;
#X obj 119 235 dac~;
#X floatatom 169 180 5 0 1 0 - - - 0;
#X obj 130 180 *~;
#X msg 70 105 660;
#X obj 33 79 select 97 115;
#X obj 54 -104 midiin;
#X floatatom 54 -80 5 0 0 0 - - - 0;
#X obj 54 -57 print;
#X obj 171 -78 notein;
#X floatatom 171 -53 5 0 0 0 - - - 0;
#X floatatom 190 -29 5 0 0 0 - - - 0;
#X floatatom 211 -5 5 0 0 0 - - - 0;
#X obj 154 -6 mtof;
#X floatatom 160 26 5 0 0 0 - - - 0;
#X obj 239 60 ctlin;
#X floatatom 239 81 5 0 0 0 - - - 0;
#X floatatom 255 101 5 0 0 0 - - - 0;
#X floatatom 271 121 5 0 0 0 - - - 0;
#X obj 206 114 / 127;
#X connect 0 0 1 0;
#X connect 1 0 10 0;
#X connect 2 0 3 0;
#X connect 4 0 8 0;
#X connect 5 0 4 0;
#X connect 7 0 8 1;
#X connect 8 0 6 0;
#X connect 8 0 6 1;
#X connect 9 0 4 0;
#X connect 10 0 5 0;
#X connect 10 1 9 0;
#X connect 11 0 12 0;
#X connect 12 0 13 0;
#X connect 14 0 15 0;
#X connect 14 1 16 0;
#X connect 14 2 17 0;
#X connect 15 0 18 0;
#X connect 18 0 4 0;
#X connect 18 0 19 0;
#X connect 20 0 21 0;
#X connect 20 1 22 0;
#X connect 20 2 23 0;
#X connect 21 0 24 0;
#X connect 24 0 7 0;
