#N canvas 1054 485 450 300 12;
#X obj 24 59 osc~;
#X obj 27 17 hsl 50 15 50 1500 0 0 empty empty Freq -2 -8 0 10 #fcfcfc
#000000 #000000 0 1;
#X floatatom 24 37 5 0 0 0 - - - 0;
#X obj 140 208 *~;
#X obj 127 246 dac~;
#X obj 91 60 osc~;
#X obj 94 18 hsl 50 15 50 1500 0 0 empty empty Freq -2 -8 0 10 #fcfcfc
#000000 #000000 0 1;
#X floatatom 91 38 5 0 0 0 - - - 0;
#X obj 62 100 *~;
#X floatatom 162 178 5 0 1 0 - - - 0;
#X obj 93 141 *~;
#X obj 157 60 osc~;
#X obj 160 18 hsl 50 15 50 1500 0 0 empty empty Freq -2 -8 0 10 #fcfcfc
#000000 #000000 0 1;
#X floatatom 157 38 5 0 0 0 - - - 0;
#X obj 225 19 adc~;
#X obj 225 75 *~;
#X floatatom 235 43 5 0 1 0 - - - 0;
#X obj 125 173 *~;
#X connect 0 0 8 0;
#X connect 1 0 2 0;
#X connect 2 0 0 0;
#X connect 3 0 4 0;
#X connect 3 0 4 1;
#X connect 5 0 8 1;
#X connect 6 0 7 0;
#X connect 7 0 5 0;
#X connect 8 0 10 0;
#X connect 9 0 3 1;
#X connect 10 0 17 0;
#X connect 11 0 10 1;
#X connect 12 0 13 0;
#X connect 13 0 11 0;
#X connect 14 0 15 0;
#X connect 15 0 17 1;
#X connect 16 0 15 1;
#X connect 17 0 3 0;
