#N canvas 71 38 1460 999 12;
#X text 51 -130 BPM;
#X obj 18 -97 loadbang;
#X msg 18 -73 60000;
#X obj 71 27 /;
#X floatatom 71 51 5 0 0 0 - - - 0;
#X obj 71 74 send 4th_time;
#X obj 90 -97 loadbang;
#X msg 90 -73 60;
#X floatatom 90 -49 5 0 0 0 - - - 0;
#X obj 71 -10 bng 15 250 50 0 empty empty empty 17 7 0 10 #fcfcfc #000000
#000000;
#X obj 11 301 receive ON;
#X obj 61 381 metro;
#X obj 61 411 bng 15 250 50 0 empty empty empty 17 7 0 10 #fcfcfc #000000
#000000;
#X obj 61 437 send whole_note;
#X obj 93 301 receive 4th_time;
#X obj 93 325 * 4;
#X floatatom 93 349 5 0 0 0 - - - 0;
#X obj 111 381 send whole_time;
#X obj 229 301 receive ON;
#X obj 279 381 metro;
#X obj 279 411 bng 15 250 50 0 empty empty empty 17 7 0 10 #fcfcfc
#000000 #000000;
#X obj 311 301 receive 4th_time;
#X floatatom 311 349 5 0 0 0 - - - 0;
#X obj 311 325 * 1;
#X text 148 269 Clock Multiplication;
#X text 669 270 Clock Division;
#X obj 467 301 receive ON;
#X obj 517 381 metro;
#X obj 517 411 bng 15 250 50 0 empty empty empty 17 7 0 10 #fcfcfc
#000000 #000000;
#X obj 549 301 receive 4th_time;
#X floatatom 549 349 5 0 0 0 - - - 0;
#X obj 685 301 receive ON;
#X obj 735 381 metro;
#X obj 735 411 bng 15 250 50 0 empty empty empty 17 7 0 10 #fcfcfc
#000000 #000000;
#X obj 767 301 receive 4th_time;
#X floatatom 767 349 5 0 0 0 - - - 0;
#X obj 767 325 * 1;
#X obj 549 325 * 2;
#X obj 567 381 send half_time;
#X obj 517 437 send half_note;
#X obj 735 437 send 4th_note;
#X obj 279 437 send 4th_note;
#X obj 903 301 receive ON;
#X obj 953 381 metro;
#X obj 953 411 bng 15 250 50 0 empty empty empty 17 7 0 10 #fcfcfc
#000000 #000000;
#X obj 985 301 receive 4th_time;
#X floatatom 985 349 5 0 0 0 - - - 0;
#X obj 1003 381 send 8th_time;
#X obj 953 437 send 8th_note;
#X obj 1121 301 receive ON;
#X obj 1171 381 metro;
#X obj 1171 411 bng 15 250 50 0 empty empty empty 17 7 0 10 #fcfcfc
#000000 #000000;
#X obj 1203 301 receive 4th_time;
#X floatatom 1203 349 5 0 0 0 - - - 0;
#X obj 1203 325 / 4;
#X obj 985 325 / 2;
#X obj 1221 381 send 16th_time;
#X obj 1171 437 send 16th_note;
#X obj 224 -108 tgl 15 0 empty empty empty 17 7 0 10 #fcfcfc #000000
#000000 0 1;
#X obj 224 -88 send ON;
#X text 218 -129 on/off;
#X obj 411 -106 receive ON;
#X obj 411 -82 sel 0;
#X obj 415 -49 bng 15 250 50 0 empty empty empty 17 7 0 10 #fcfcfc
#000000 #000000;
#X msg 415 -29 -1;
#X obj 336 -81 loadbang;
#X text 366 -51 reset;
#X obj 473 -56 receive whole_note;
#X obj 474 -25 bng 15 250 50 0 empty empty empty 17 7 0 10 #fcfcfc
#000000 #000000;
#X obj 474 -5 int 1;
#X obj 524 -5 + 1;
#X floatatom 474 19 5 0 0 0 - - - 0;
#X obj 474 42 % 2;
#X obj 474 66 + 1;
#X obj 474 90 sel 1;
#X obj 474 123 bng 15 250 50 0 empty empty empty 17 7 0 10 #fcfcfc
#000000 #000000;
#X obj 476 148 tgl 15 0 empty empty empty 17 7 0 10 #fcfcfc #000000
#000000 0 1;
#X text 391 -133 clock/sequencer;
#X obj 476 168 send Chord;
#X obj 357 64 receive ON;
#X obj 357 88 sel 0;
#X msg 404 116 1;
#X obj 404 89 loadbang;
#X obj 278 596 r Chord;
#X obj 278 620 tgl 15 0 empty empty empty 17 7 0 10 #fcfcfc #000000
#000000 0 1;
#X obj 278 646 sel 0;
#X obj 277 677 bng 15 250 50 0 empty empty empty 17 7 0 10 #fcfcfc
#000000 #000000;
#X obj 308 678 bng 15 250 50 0 empty empty empty 17 7 0 10 #fcfcfc
#000000 #000000;
#X msg 277 707 130.81;
#X msg 339 708 87.31;
#X floatatom 277 741 5 0 0 0 - - - 0;
#X obj 277 764 phasor~;
#X obj 277 788 lop~ 100;
#X obj 277 812 *~;
#X obj 277 836 send~ Bass;
#X text 386 584 Bass;
#X obj 404 649 receive ON;
#X obj 404 673 sel 1;
#X obj 407 709 bng 15 250 50 0 empty empty empty 17 7 0 10 #fcfcfc
#000000 #000000;
#X msg 407 729 1 500;
#X obj 407 783 line;
#X obj 512 622 receive whole_time;
#X obj 512 646 * 2;
#X floatatom 512 670 5 0 0 0 - - - 0;
#X obj 512 693 - 100;
#X obj 484 729 delay;
#X msg 484 753 0 100;
#X obj 578 678 receive ON;
#X obj 578 702 sel 0;
#X obj 578 726 delay 5;
#X text 889 591 ambient pad melody;
#X obj 774 610 r whole_note;
#X obj 778 638 bng 15 250 50 0 empty empty empty 17 7 0 10 #fcfcfc
#000000 #000000;
#X floatatom 844 710 5 0 0 0 - - - 0;
#X obj 844 783 phasor~;
#X obj 844 837 lop~ 100;
#X obj 844 872 *~;
#X obj 844 896 *~ 0.5;
#X obj 844 922 send~ Ambient_Pad;
#X obj 910 742 * 1.001;
#X floatatom 910 766 5 0 0 0 - - - 0;
#X obj 910 789 phasor~;
#X obj 990 679 bng 15 250 50 0 empty empty empty 17 7 0 10 #fcfcfc
#000000 #000000;
#X msg 990 749 1 500;
#X obj 990 833 line;
#X obj 1064 745 delay;
#X msg 1064 789 0 500;
#X obj 1095 632 receive whole_time;
#X floatatom 1095 666 5 0 0 0 - - - 0;
#X obj 1095 699 - 500;
#X obj 1141 665 receive ON;
#X obj 1141 699 sel 0;
#X obj 1141 733 delay 5;
#X obj 778 668 Chords_Scales;
#X obj 595 -153 receive~ Bass;
#X obj 710 -153 receive~ Ambient_Pad;
#X obj 874 -153 loadbang;
#X msg 874 -128 1;
#X msg 874 -103 wet \$1;
#X obj 954 -153 loadbang;
#X obj 1034 -153 loadbang;
#X msg 954 -128 0.5;
#X msg 954 -103 dry \$1;
#X msg 1034 -128 0.95;
#X msg 1034 -103 roomsize \$1;
#X obj 756 29 output~;
#X obj 760 -3 rev2~ 100 90 3000 20;
#X obj 846 29 output~;
#X connect 1 0 2 0;
#X connect 2 0 3 0;
#X connect 3 0 4 0;
#X connect 4 0 5 0;
#X connect 6 0 7 0;
#X connect 7 0 8 0;
#X connect 8 0 9 0;
#X connect 8 0 3 1;
#X connect 9 0 3 0;
#X connect 10 0 11 0;
#X connect 11 0 12 0;
#X connect 12 0 13 0;
#X connect 14 0 15 0;
#X connect 15 0 16 0;
#X connect 16 0 17 0;
#X connect 16 0 11 1;
#X connect 18 0 19 0;
#X connect 19 0 20 0;
#X connect 20 0 41 0;
#X connect 21 0 23 0;
#X connect 22 0 19 1;
#X connect 23 0 22 0;
#X connect 26 0 27 0;
#X connect 27 0 28 0;
#X connect 28 0 39 0;
#X connect 29 0 37 0;
#X connect 30 0 27 1;
#X connect 30 0 38 0;
#X connect 31 0 32 0;
#X connect 32 0 33 0;
#X connect 33 0 40 0;
#X connect 34 0 36 0;
#X connect 35 0 32 1;
#X connect 36 0 35 0;
#X connect 37 0 30 0;
#X connect 42 0 43 0;
#X connect 43 0 44 0;
#X connect 44 0 48 0;
#X connect 45 0 55 0;
#X connect 46 0 43 1;
#X connect 46 0 47 0;
#X connect 49 0 50 0;
#X connect 50 0 51 0;
#X connect 51 0 57 0;
#X connect 52 0 54 0;
#X connect 53 0 50 1;
#X connect 53 0 56 0;
#X connect 54 0 53 0;
#X connect 55 0 46 0;
#X connect 58 0 59 0;
#X connect 61 0 62 0;
#X connect 62 0 63 0;
#X connect 63 0 64 0;
#X connect 64 0 69 0;
#X connect 65 0 63 0;
#X connect 67 0 68 0;
#X connect 68 0 69 0;
#X connect 69 0 70 0;
#X connect 69 0 71 0;
#X connect 70 0 69 1;
#X connect 71 0 72 0;
#X connect 72 0 73 0;
#X connect 73 0 74 0;
#X connect 74 0 75 0;
#X connect 75 0 76 0;
#X connect 76 0 78 0;
#X connect 79 0 80 0;
#X connect 80 0 81 0;
#X connect 81 0 76 0;
#X connect 82 0 81 0;
#X connect 83 0 84 0;
#X connect 84 0 85 0;
#X connect 85 0 86 0;
#X connect 85 1 87 0;
#X connect 86 0 88 0;
#X connect 87 0 89 0;
#X connect 88 0 90 0;
#X connect 89 0 90 0;
#X connect 90 0 91 0;
#X connect 91 0 92 0;
#X connect 92 0 93 0;
#X connect 93 0 94 0;
#X connect 96 0 97 0;
#X connect 97 0 98 0;
#X connect 98 0 99 0;
#X connect 99 0 100 0;
#X connect 100 0 93 1;
#X connect 101 0 102 0;
#X connect 102 0 103 0;
#X connect 103 0 104 0;
#X connect 104 0 105 1;
#X connect 105 0 106 0;
#X connect 106 0 100 0;
#X connect 107 0 108 0;
#X connect 108 0 109 0;
#X connect 109 0 106 0;
#X connect 111 0 112 0;
#X connect 111 0 122 0;
#X connect 112 0 133 0;
#X connect 113 0 114 0;
#X connect 113 0 119 0;
#X connect 114 0 115 0;
#X connect 115 0 116 0;
#X connect 116 0 117 0;
#X connect 117 0 118 0;
#X connect 119 0 120 0;
#X connect 120 0 121 0;
#X connect 121 0 115 0;
#X connect 122 0 123 0;
#X connect 122 0 125 0;
#X connect 123 0 124 0;
#X connect 124 0 116 1;
#X connect 125 0 126 0;
#X connect 126 0 124 0;
#X connect 127 0 128 0;
#X connect 128 0 129 0;
#X connect 129 0 125 1;
#X connect 130 0 131 0;
#X connect 131 0 132 0;
#X connect 132 0 126 0;
#X connect 133 0 113 0;
#X connect 134 0 146 0;
#X connect 135 0 146 0;
#X connect 136 0 137 0;
#X connect 137 0 138 0;
#X connect 139 0 141 0;
#X connect 140 0 143 0;
#X connect 141 0 142 0;
#X connect 143 0 144 0;
#X connect 146 0 145 0;
#X connect 146 1 145 1;
#X connect 146 2 147 0;
#X connect 146 3 147 1;
