#N canvas 201 280 649 425 12;
#X obj 209 173 *~;
#X obj 263 113 phasor~;
#X floatatom 267 83 5 0 0 0 - - - 0;
#X obj 195 259 dac~;
#X obj 198 221 *~;
#X floatatom 243 208 5 0 1 0 - - - 0;
#X floatatom 389 47 5 0 0 0 - - - 0;
#X obj 389 68 lfo;
#X floatatom 396 117 5 0 0 0 - - - 0;
#X floatatom 28 21 5 0 0 0 - - - 0;
#X obj 28 44 phasor~;
#X obj 28 68 expr~ $v1 * 2 -1;
#X obj 168 52 hsl 128 15 10 10000 0 0 empty empty cutoff -2 -8 0 10
#e3c6ff #000000 #000000 0 1;
#X floatatom 165 72 5 0 0 0 - - - 0;
#X floatatom 165 96 5 1 10 1 lo\ pass - - 0;
#X obj 30 148 bob~ 1;
#X obj 396 140 abs;
#X floatatom 393 194 7 0 0 0 - - - 0;
#X obj 396 164 * 100;
#X obj 393 217 + 100;
#X obj 337 311 hsl 128 15 0 127 0 0 empty empty empty -2 -8 0 10 #fcfcfc
#000000 #000000 0 1;
#X connect 0 0 4 0;
#X connect 1 0 0 1;
#X connect 2 0 1 0;
#X connect 4 0 3 0;
#X connect 4 0 3 1;
#X connect 5 0 4 1;
#X connect 6 0 7 0;
#X connect 7 1 8 0;
#X connect 8 0 2 0;
#X connect 8 0 16 0;
#X connect 9 0 10 0;
#X connect 10 0 11 0;
#X connect 11 0 15 0;
#X connect 12 0 13 0;
#X connect 13 0 15 1;
#X connect 14 0 15 2;
#X connect 15 0 0 0;
#X connect 16 0 18 0;
#X connect 17 0 19 0;
#X connect 18 0 17 0;
#X connect 19 0 12 0;
