#N canvas 1015 347 470 399 12;
#X obj 141 46 inlet;
#X obj 141 84 bng 15 250 50 0 empty empty empty 17 7 0 10 #fcfcfc #000000
#000000;
#X obj 141 104 random 8;
#X floatatom 141 128 5 0 0 0 - - - 0;
#X text 185 129 C Major Scale (MIDI Note);
#X obj 38 185 sel 0;
#X obj 88 185 sel 1;
#X obj 138 185 sel 2;
#X obj 188 185 sel 3;
#X obj 238 185 sel 4;
#X obj 288 185 sel 5;
#X obj 338 185 sel 6;
#X obj 388 185 sel 7;
#X msg 38 234 60;
#X msg 88 234 62;
#X msg 138 234 64;
#X msg 188 234 65;
#X msg 238 234 67;
#X msg 288 234 69;
#X msg 338 234 71;
#X msg 388 234 72;
#X text 52 210 C;
#X text 402 210 C;
#X text 102 210 D;
#X text 152 210 E;
#X text 202 210 F;
#X text 252 210 G;
#X text 302 210 A;
#X text 352 210 B;
#X floatatom 200 276 5 0 0 0 - - - 0;
#X obj 200 299 mtof;
#X floatatom 200 323 5 0 0 0 - - - 0;
#X obj 200 346 outlet;
#X connect 0 0 1 0;
#X connect 1 0 2 0;
#X connect 2 0 3 0;
#X connect 3 0 5 0;
#X connect 3 0 12 0;
#X connect 3 0 11 0;
#X connect 3 0 10 0;
#X connect 3 0 9 0;
#X connect 3 0 8 0;
#X connect 3 0 7 0;
#X connect 3 0 6 0;
#X connect 5 0 13 0;
#X connect 6 0 14 0;
#X connect 7 0 15 0;
#X connect 8 0 16 0;
#X connect 9 0 17 0;
#X connect 10 0 18 0;
#X connect 11 0 19 0;
#X connect 12 0 20 0;
#X connect 13 0 29 0;
#X connect 14 0 29 0;
#X connect 15 0 29 0;
#X connect 16 0 29 0;
#X connect 17 0 29 0;
#X connect 18 0 29 0;
#X connect 19 0 29 0;
#X connect 20 0 29 0;
#X connect 29 0 30 0;
#X connect 30 0 31 0;
#X connect 31 0 32 0;
