#N canvas 1107 342 450 300 12;
#X obj 37 7 inlet;
#X obj 37 31 t b f;
#X obj 37 85 sel 0;
#X msg 37 109 1300;
#X floatatom 37 133 5 0 0 0 - - - 0;
#X obj 37 156 osc~;
#X obj 37 180 *~;
#X msg 90 110 900;
#X msg 127 85 0.6 5 \, 0 200 10;
#X obj 127 109 vline~;
#X obj 127 133 pow~ 4;
#X obj 102 8 inlet;
#X obj 66 217 *~;
#X obj 131 187 hsl 128 15 0 1 0 0 empty empty vol -2 -8 0 10 #c6feff
#000000 #000000 0 1;
#X obj 201 206 loadbang;
#X msg 201 230 1;
#X obj 55 252 dac~;
#X connect 0 0 1 0;
#X connect 1 0 8 0;
#X connect 1 1 2 0;
#X connect 2 0 3 0;
#X connect 2 1 7 0;
#X connect 3 0 4 0;
#X connect 4 0 5 0;
#X connect 5 0 6 0;
#X connect 6 0 12 0;
#X connect 7 0 4 0;
#X connect 8 0 9 0;
#X connect 9 0 10 0;
#X connect 10 0 6 1;
#X connect 11 0 13 0;
#X connect 12 0 16 0;
#X connect 12 0 16 1;
#X connect 13 0 12 1;
#X connect 14 0 15 0;
#X connect 15 0 13 0;
