#N canvas 692 211 670 661 12;
#X obj 104 142 *~;
#X obj 157 146 hsl 128 15 0 10 0 0 empty empty Gain -2 -8 0 10 #c6ffc7
#000000 #000000 0 1;
#X obj 114 248 *~;
#X obj 164 247 hsl 128 15 0 1 0 0 empty empty Output -2 -8 0 10 #c6ffc7
#000000 #000000 0 1;
#X obj 29 226 vu 15 120 empty empty -1 -8 0 10 #404040 #000000 1 0
;
#X obj 26 171 env~;
#X obj 26 195 - 90;
#X floatatom 388 161 5 0 0 0 - - - 0;
#X obj 391 136 hsl 128 15 0 5000 0 0 empty empty Delay\\\ time -2 -8
0 10 #c6ffc7 #000000 #000000 0 1;
#X obj 387 225 *~;
#X obj 424 227 hsl 128 15 0 1 0 0 empty empty Delay\\\ volume -2 -8
0 10 #c6ffc7 #000000 #000000 0 1;
#X obj 409 263 *~;
#X obj 460 262 hsl 128 15 0 1 0 0 empty empty Feedback\\\ Amount -2
-8 0 10 #c6ffc7 #000000 #000000 0 1;
#X obj 104 85 inlet~;
#X obj 115 323 outlet~;
#X obj 385 333 outlet~;
#X text 173 324 dry out;
#X text 442 333 delay out;
#X obj 147 177 receive~ \$0-feedback-sig;
#X obj 134 201 delwrite~ \$0-audio-buffer 5000;
#X obj 399 289 send~ \$0-feedback-sig;
#X obj 388 190 delread~ \$0-audio-buffer 0;
#X obj 216 87 inlet;
#X text 94 60 audio in;
#X text 213 59 delay speed;
#X msg 308 372 0.25;
#X obj 307 324 loadbang;
#X msg 343 372 400;
#X connect 0 0 2 0;
#X connect 0 0 5 0;
#X connect 0 0 19 0;
#X connect 1 0 0 1;
#X connect 2 0 14 0;
#X connect 3 0 2 1;
#X connect 5 0 6 0;
#X connect 6 0 4 0;
#X connect 7 0 21 0;
#X connect 8 0 7 0;
#X connect 9 0 11 0;
#X connect 9 0 15 0;
#X connect 10 0 9 1;
#X connect 11 0 20 0;
#X connect 12 0 11 1;
#X connect 13 0 0 0;
#X connect 18 0 19 0;
#X connect 21 0 9 0;
#X connect 22 0 8 0;
#X connect 25 0 10 0;
#X connect 25 0 1 0;
#X connect 25 0 3 0;
#X connect 26 0 25 0;
#X connect 26 0 27 0;
#X connect 27 0 8 0;
