#N canvas 601 137 711 403 12;
#X obj 74 96 loadbang;
#X msg 74 120 1000;
#X obj 74 194 /;
#X floatatom 74 218 5 0 0 0 - - - 0;
#X floatatom 168 96 5 0 0 0 - - - 0;
#X obj 168 131 bng 15 250 50 0 empty empty empty 17 7 0 10 #fcfcfc
#000000 #000000;
#X obj 168 150 del 1;
#X obj 235 95 noise~;
#X obj 235 119 *~ 0.75;
#X obj 235 143 delwrite~ delayname0 1000;
#X obj 363 176 *~ 0.75;
#X floatatom 235 200 5 0 0 0 - - - 0;
#X obj 235 223 delread~ delayname0 500;
#X obj 235 247 hip~ 500;
#X obj 235 271 lop~ 500;
#X obj 235 305 *~;
#X obj 225 339 dac~;
#X obj 447 89 bng 15 250 50 0 empty empty empty 17 7 0 10 #fcfcfc #000000
#000000;
#X msg 447 189 1 10;
#X obj 447 223 line;
#X obj 505 124 delay 100;
#X msg 505 148 0 500;
#X floatatom 401 113 5 0 0.95 0 - - - 0;
#X obj 471 13 tgl 15 0 empty empty empty 17 7 0 10 #fcfcfc #000000
#000000 0 1;
#X obj 464 39 metro 1000;
#X floatatom 283 46 5 0 0.95 0 - - - 0;
#X connect 0 0 1 0;
#X connect 1 0 2 0;
#X connect 2 0 3 0;
#X connect 3 0 11 0;
#X connect 4 0 5 0;
#X connect 4 0 2 1;
#X connect 5 0 6 0;
#X connect 5 0 2 0;
#X connect 6 0 2 0;
#X connect 7 0 8 0;
#X connect 8 0 9 0;
#X connect 10 0 9 0;
#X connect 11 0 12 0;
#X connect 12 0 13 0;
#X connect 12 0 10 0;
#X connect 13 0 14 0;
#X connect 14 0 15 0;
#X connect 15 0 16 0;
#X connect 15 0 16 1;
#X connect 17 0 18 0;
#X connect 17 0 20 0;
#X connect 18 0 19 0;
#X connect 19 0 15 1;
#X connect 20 0 21 0;
#X connect 21 0 19 0;
#X connect 22 0 10 1;
#X connect 23 0 24 0;
#X connect 24 0 17 0;
#X connect 25 0 8 1;
