#N canvas 660 482 496 387 12;
#X msg 46 41 40;
#X obj 110 120 line;
#X floatatom 110 144 5 0 0 0 - - - 0;
#X obj 110 167 mtof;
#X obj 110 191 sig~;
#X obj 110 215 osc~;
#X obj 110 259 *~;
#X obj 92 294 dac~;
#X msg 128 68 70 13000;
#X msg 201 68 50 10000;
#X msg 273 68 80 3000;
#X msg 339 68 100 8000;
#X obj 250 122 unpack f f;
#X obj 317 155 t b f;
#X obj 302 229 del;
#X msg 302 253 0 1000;
#X msg 243 254 1 1000;
#X obj 243 278 line~;
#X obj 362 193 - 1000;
#X connect 0 0 1 0;
#X connect 1 0 2 0;
#X connect 2 0 3 0;
#X connect 3 0 4 0;
#X connect 4 0 5 0;
#X connect 5 0 6 0;
#X connect 6 0 7 0;
#X connect 6 0 7 1;
#X connect 8 0 1 0;
#X connect 8 0 12 0;
#X connect 9 0 1 0;
#X connect 9 0 12 0;
#X connect 10 0 1 0;
#X connect 10 0 12 0;
#X connect 11 0 1 0;
#X connect 11 0 12 0;
#X connect 12 1 13 0;
#X connect 13 0 14 0;
#X connect 13 0 16 0;
#X connect 13 1 18 0;
#X connect 14 0 15 0;
#X connect 16 0 17 0;
#X connect 17 0 6 1;
#X connect 18 0 14 1;
