#N canvas 926 590 572 300 12;
#X obj 108 140 mono-synth;
#X floatatom 89 111 5 0 0 0 - - -, f 5;
#X obj 89 38 notein;
#X obj 89 88 mtof;
#X obj 89 65 stripnote;
#X floatatom 149 88 5 0 0 0 - - -, f 5;
#X floatatom 268 45 5 0 0 0 - - -, f 5;
#X floatatom 361 45 5 0 0 0 - - -, f 5;
#X obj 268 24 ctlin 1;
#X obj 361 65 send releaseRate;
#X obj 268 65 send cutoff1;
#X obj 361 24 ctlin 64;
#X obj 112 179 *~;
#X obj 101 208 dac~;
#X floatatom 162 216 5 0 0 0 - - -, f 5;
#X obj 162 174 ctlin 7;
#X obj 162 195 / 127;
#X connect 0 0 12 0;
#X connect 1 0 0 0;
#X connect 2 0 4 0;
#X connect 2 1 4 1;
#X connect 2 1 0 1;
#X connect 3 0 1 0;
#X connect 4 0 3 0;
#X connect 4 1 5 0;
#X connect 5 0 0 2;
#X connect 6 0 10 0;
#X connect 7 0 9 0;
#X connect 8 0 6 0;
#X connect 11 0 7 0;
#X connect 12 0 13 0;
#X connect 12 0 13 1;
#X connect 14 0 12 1;
#X connect 15 0 16 0;
#X connect 15 0 14 0;
#X connect 16 0 14 0;
