#N canvas 1235 38 450 300 12;
#X obj 36 31 inlet;
#N canvas 1128 281 450 300 oscillators 1;
#X obj 48 82 phasor~;
#X floatatom 48 37 5 0 0 0 - - -, f 5;
#X obj 176 59 * 1.001;
#X obj 176 82 phasor~;
#X obj 176 105 expr~ $v1 *2 + 1;
#X obj 48 105 expr~ $v1 *2 + 1;
#X obj 48 14 inlet;
#X obj 123 160 outlet~;
#X obj 48 59 mtof;
#X connect 0 0 5 0;
#X connect 1 0 8 0;
#X connect 2 0 3 0;
#X connect 3 0 4 0;
#X connect 5 0 7 0;
#X connect 6 0 1 0;
#X connect 8 0 0 0;
#X connect 8 0 2 0;
#X restore 54 144 pd oscillators;
#N canvas 639 38 450 300 filters 0;
#X obj 144 152 bob~;
#X msg 160 116 300;
#X msg 193 116 1.5;
#X obj 162 76 loadbang;
#X obj 141 46 inlet~;
#X obj 142 195 outlet~;
#X floatatom 258 64 5 0 0 0 - - -, f 5;
#X obj 258 92 / 127;
#X obj 258 121 pow 4;
#X obj 258 150 * 10000;
#X obj 258 179 + 20;
#X obj 258 35 receive cutoff1;
#X connect 0 0 5 0;
#X connect 1 0 0 1;
#X connect 2 0 0 2;
#X connect 3 0 1 0;
#X connect 3 0 2 0;
#X connect 4 0 0 0;
#X connect 6 0 7 0;
#X connect 7 0 8 0;
#X connect 8 0 9 0;
#X connect 9 0 10 0;
#X connect 10 0 0 1;
#X connect 11 0 6 0;
#X restore 55 181 pd filters;
#N canvas 1265 62 389 521 amplifiers 0;
#X obj 101 314 vline~;
#X msg 109 260 \$1 5 \, 0 700 5;
#X obj 292 75 / 127;
#X obj 319 111 * 0.5;
#X obj 292 148 pack;
#X obj 62 71 sel 0;
#X obj 72 347 *~;
#X obj 84 17 inlet;
#X obj 291 19 inlet;
#X obj 16 23 inlet~;
#X obj 72 376 outlet~;
#X floatatom 292 51 5 0 0 0 - - -, f 5;
#X obj 132 38 receive releaseRate;
#X floatatom 132 67 5 0 0 0 - - -, f 5;
#X obj 132 95 * 20;
#X floatatom 132 124 5 0 0 0 - - -, f 5;
#X msg 76 196 0 \$1;
#X obj 101 159 f;
#X obj 62 100 bng 15 250 50 0 empty empty empty 17 7 0 10 #fcfcfc #000000
#000000;
#X msg 142 185 700;
#X obj 140 154 loadbang;
#X connect 0 0 6 1;
#X connect 1 0 0 0;
#X connect 2 0 3 0;
#X connect 2 0 4 0;
#X connect 3 0 4 1;
#X connect 4 0 1 0;
#X connect 5 0 18 0;
#X connect 6 0 10 0;
#X connect 7 0 5 0;
#X connect 8 0 11 0;
#X connect 9 0 6 0;
#X connect 11 0 2 0;
#X connect 12 0 13 0;
#X connect 13 0 14 0;
#X connect 14 0 15 0;
#X connect 15 0 17 1;
#X connect 16 0 0 0;
#X connect 17 0 16 0;
#X connect 18 0 17 0;
#X connect 19 0 17 1;
#X connect 20 0 19 0;
#X restore 56 214 pd amplifiers;
#X text 36 11 pitch;
#X obj 56 243 outlet~;
#X obj 36 60 unpack 0 0;
#X obj 31 96 stripnote;
#X connect 0 0 6 0;
#X connect 1 0 2 0;
#X connect 2 0 3 0;
#X connect 3 0 5 0;
#X connect 6 0 7 0;
#X connect 6 1 7 1;
#X connect 6 1 3 1;
#X connect 7 0 1 0;
#X connect 7 1 3 2;
