#N canvas 489 337 450 300 12;
#X obj 18 13 inlet~ signal;
#X obj 226 12 inlet control;
#X obj 18 224 *~;
#X obj 19 259 outlet~ left;
#X obj 206 226 *~;
#X obj 226 36 / 4;
#X floatatom 226 60 5 0 0 0 - - - 0;
#X obj 226 83 + 0.75;
#X msg 226 107 \$1 10;
#X obj 226 131 line~;
#X obj 226 155 cos~;
#X msg 36 150 \$1 10;
#X obj 36 174 line~;
#X obj 36 198 cos~;
#X obj 206 259 outlet~ right;
#X text 254 36 <-- Range: 0-.25;
#X connect 0 0 2 0;
#X connect 0 0 4 0;
#X connect 1 0 5 0;
#X connect 2 0 3 0;
#X connect 4 0 14 0;
#X connect 5 0 6 0;
#X connect 6 0 7 0;
#X connect 6 0 11 0;
#X connect 7 0 8 0;
#X connect 8 0 9 0;
#X connect 9 0 10 0;
#X connect 10 0 4 1;
#X connect 11 0 12 0;
#X connect 12 0 13 0;
#X connect 13 0 2 1;
