#N canvas 1074 256 475 422 12;
#X floatatom 60 67 5 0 127 0 - - - 0;
#X floatatom 187 148 5 0 0 0 - - - 0;
#X obj 78 96 % 12;
#X msg 187 234 -1;
#X obj 60 284 +;
#X floatatom 60 308 5 0 0 0 - - - 0;
#X msg 78 168 0;
#X obj 187 169 - 1;
#X floatatom 296 233 5 0 0 0 - - - 0;
#X msg 296 254 -2;
#X obj 78 118 select 0 2 4 7 9;
#X obj 187 191 select 0 2 4 7 9;
#X obj 61 30 inlet;
#X obj 103 368 outlet;
#X connect 0 0 2 0;
#X connect 0 0 4 0;
#X connect 1 0 7 0;
#X connect 2 0 10 0;
#X connect 3 0 4 1;
#X connect 4 0 5 0;
#X connect 5 0 13 0;
#X connect 6 0 4 1;
#X connect 7 0 11 0;
#X connect 8 0 9 0;
#X connect 9 0 4 1;
#X connect 10 0 6 0;
#X connect 10 1 6 0;
#X connect 10 2 6 0;
#X connect 10 3 6 0;
#X connect 10 4 6 0;
#X connect 10 5 1 0;
#X connect 11 0 3 0;
#X connect 11 1 3 0;
#X connect 11 2 3 0;
#X connect 11 3 3 0;
#X connect 11 4 3 0;
#X connect 11 5 8 0;
#X connect 12 0 0 0;
