#N canvas 116 92 719 705 12;
#X obj 144 102 notein;
#X floatatom 20 151 5 0 0 0 - - - 0;
#X floatatom 58 151 5 0 0 0 - - - 0;
#X floatatom 95 151 5 0 0 0 - - - 0;
#X obj 143 182 pack 0 0 0;
#X obj 143 156 - 1;
#X floatatom 260 127 5 0 0 0 - - - 0;
#X floatatom 353 127 5 0 0 0 - - - 0;
#X obj 260 106 ctlin 1;
#X obj 353 147 send releaseRate;
#X obj 260 147 send cutoff1;
#X obj 353 106 ctlin 64;
#X obj 144 131 poly 4 1;
#X obj 143 222 clone mono-synth 4;
#X floatatom 302 245 5 0 0 0 - - - 0;
#X obj 302 224 ctlin 7;
#X obj 302 265 / 127;
#X obj 140 256 *~;
#X floatatom 237 34 5 0 0 0 - - - 0;
#X obj 237 54 lfo;
#X floatatom 237 75 5 0 0 0 - - - 0;
#X floatatom 354 34 5 0 0 0 - - - 0;
#X obj 354 54 lfo;
#X floatatom 354 75 5 0 0 0 - - - 0;
#X obj 197 463 rev2~ 100 90 3000 20;
#X floatatom 265 419 5 0 100 1 livelyness - - 0;
#X floatatom 333 437 5 0 100 1 damping - - 0;
#X obj 183 503 output~;
#X obj 289 504 output~;
#X connect 0 0 12 0;
#X connect 0 1 12 1;
#X connect 4 0 13 0;
#X connect 5 0 4 0;
#X connect 6 0 10 0;
#X connect 7 0 9 0;
#X connect 8 0 6 0;
#X connect 11 0 7 0;
#X connect 12 0 1 0;
#X connect 12 0 5 0;
#X connect 12 1 2 0;
#X connect 12 1 4 1;
#X connect 12 2 3 0;
#X connect 12 2 4 2;
#X connect 13 0 17 0;
#X connect 14 0 16 0;
#X connect 15 0 14 0;
#X connect 16 0 17 1;
#X connect 17 0 24 0;
#X connect 18 0 19 0;
#X connect 19 0 20 0;
#X connect 20 0 6 0;
#X connect 21 0 22 0;
#X connect 22 0 23 0;
#X connect 23 0 7 0;
#X connect 24 0 27 0;
#X connect 24 1 27 1;
#X connect 24 2 28 0;
#X connect 24 3 28 1;
#X connect 25 0 24 2;
#X connect 26 0 24 4;
