#N canvas 1050 494 479 495 12;
#X obj 49 23 inlet;
#X obj 49 47 mtof;
#X floatatom 49 71 5 0 0 0 - - - 0;
#X obj 49 94 pack;
#X msg 49 118 \$1 \$2;
#X obj 49 142 line~;
#X obj 49 182 phasor~;
#X obj 49 224 expr~ $v1 - 1;
#X obj 49 275 bob~;
#X obj 49 299 hip~ 5;
#X obj 49 323 *~ 0.1;
#X obj 40 358 dac~;
#X obj 134 24 inlet;
#X floatatom 134 48 5 0 0 0 - - - 0;
#X obj 160 171 *~ 1.003;
#X obj 160 195 phasor~;
#X floatatom 59 249 5 0 0 0 - - - 0;
#X floatatom 99 249 5 0 0 0 - - - 0;
#X obj 259 231 loadbang;
#X msg 259 255 550;
#X msg 294 256 3;
#X obj 184 24 inlet;
#X obj 115 303 hsl 128 15 0 1 0 0 empty empty empty -2 -8 0 10 #c6ffc7
#000000 #000000 0 1;
#X connect 0 0 1 0;
#X connect 1 0 2 0;
#X connect 2 0 3 0;
#X connect 3 0 4 0;
#X connect 4 0 5 0;
#X connect 5 0 6 0;
#X connect 5 0 14 0;
#X connect 6 0 7 0;
#X connect 7 0 8 0;
#X connect 8 0 9 0;
#X connect 9 0 10 0;
#X connect 10 0 11 0;
#X connect 10 0 11 1;
#X connect 12 0 13 0;
#X connect 13 0 3 1;
#X connect 14 0 15 0;
#X connect 15 0 7 0;
#X connect 16 0 8 1;
#X connect 17 0 8 2;
#X connect 18 0 19 0;
#X connect 18 0 20 0;
#X connect 19 0 16 0;
#X connect 20 0 17 0;
#X connect 21 0 22 0;
#X connect 22 0 10 1;
