#N canvas 1126 588 450 300 12;
#X floatatom 37 70 5 0 0 0 - - - 0;
#X obj 37 93 osc~;
#X obj 37 117 *~;
#X floatatom 125 97 5 0 1 0 - - - 0;
#X obj 37 37 inlet;
#X obj 123 38 inlet;
#X obj 38 147 outlet~;
#X obj 224 51 receive freq;
#X floatatom 224 75 5 0 0 0 - - - 0;
#X floatatom 226 151 5 0 0 0 - - - 0;
#X obj 226 127 receive amp;
#X connect 0 0 1 0;
#X connect 1 0 2 0;
#X connect 2 0 6 0;
#X connect 3 0 2 1;
#X connect 4 0 0 0;
#X connect 5 0 3 0;
#X connect 7 0 8 0;
#X connect 8 0 0 0;
#X connect 9 0 2 1;
#X connect 10 0 9 0;
